<?xml version="1.0" encoding="UTF-8" standalone="no"?>
<!-- Created with Inkscape (http://www.inkscape.org/) -->

<svg
   xmlns:dc="http://purl.org/dc/elements/1.1/"
   xmlns:cc="http://creativecommons.org/ns#"
   xmlns:rdf="http://www.w3.org/1999/02/22-rdf-syntax-ns#"
   xmlns:svg="http://www.w3.org/2000/svg"
   xmlns="http://www.w3.org/2000/svg"
   xmlns:sodipodi="http://sodipodi.sourceforge.net/DTD/sodipodi-0.dtd"
   xmlns:inkscape="http://www.inkscape.org/namespaces/inkscape"
   id="svg6252"
   version="1.1"
   inkscape:version="0.91 r13725"
   xml:space="preserve"
   width="146.05537"
   height="47.965004"
   viewBox="0 0 146.05537 47.965004"
   sodipodi:docname="baylor-logo-bw.svg"
   inkscape:export-filename="/homes/lmitche1/docs/work/talks/2018/finat-poster/baylor-logo-bw.svg.png"
   inkscape:export-xdpi="246.48"
   inkscape:export-ydpi="246.48"><metadata
     id="metadata6258"><rdf:RDF><cc:Work
         rdf:about=""><dc:format>image/svg+xml</dc:format><dc:type
           rdf:resource="http://purl.org/dc/dcmitype/StillImage" /><dc:title></dc:title></cc:Work></rdf:RDF></metadata><defs
     id="defs6256"><clipPath
       clipPathUnits="userSpaceOnUse"
       id="clipPath6272"><path
         d="M 0,0 117,0 117,39 0,39 0,0 Z"
         id="path6274"
         inkscape:connector-curvature="0" /></clipPath></defs><sodipodi:namedview
     pagecolor="#ffffff"
     bordercolor="#666666"
     borderopacity="1"
     objecttolerance="10"
     gridtolerance="10"
     guidetolerance="10"
     inkscape:pageopacity="0"
     inkscape:pageshadow="2"
     inkscape:window-width="1920"
     inkscape:window-height="1004"
     id="namedview6254"
     showgrid="false"
     inkscape:zoom="9.7223399"
     inkscape:cx="48.517643"
     inkscape:cy="26.03962"
     inkscape:window-x="0"
     inkscape:window-y="24"
     inkscape:window-maximized="1"
     inkscape:current-layer="g6264" /><g
     id="g6260"
     inkscape:groupmode="layer"
     inkscape:label="baylor-logo-bw"
     transform="matrix(1.25,0,0,-1.25,0,47.965003)"><g
       id="g6262"
       inkscape:export-xdpi="246.48"
       inkscape:export-ydpi="246.48"
       style="fill:#000000" /><g
       id="g6264"><g
         id="g6266"
         transform="translate(0,-0.627998)"><g
           id="g6268"><g
             id="g6270"
             clip-path="url(#clipPath6272)"><g
               id="g6276"><path
                 d="m 38.566,21.758 c 0,0.144 1.934,0.824 1.934,2.922 0,1.523 -0.906,3.5 -4.523,3.5 -1.649,0 -2.473,-0.082 -3.293,-0.082 -0.825,0 -1.239,0.082 -1.649,0.082 -0.246,0 -0.555,0.019 -0.555,-0.289 0,-0.414 1.832,-0.207 1.832,-1.77 l 0,-10.125 c 0,-1.601 -0.722,-1.707 -0.949,-1.769 -0.367,-0.125 -0.617,-0.188 -0.617,-0.391 0,-0.184 0.414,-0.227 0.516,-0.227 0.949,0 1.914,0.082 2.859,0.082 0.699,0 1.934,-0.082 2.676,-0.082 4.012,0 5,3.004 5,4.364 0,3.414 -3.231,3.476 -3.231,3.785 M 35.129,27.5 c 2.082,0 3.953,-1.258 3.953,-3.48 0,-0.965 -0.164,-2.219 -3.539,-2.219 -1.855,0 -1.605,0.101 -1.605,0.761 l 0,3.395 c 0,1.191 -0.106,1.543 1.191,1.543 m 1.625,-13.332 c -2.922,0 -2.816,0.43 -2.816,1.91 l 0,4.61 c 0,0.187 -0.106,0.472 1.48,0.472 4.73,0 4.816,-2.633 4.816,-3.949 0,-1.234 -0.742,-3.043 -3.48,-3.043"
                 style="fill:#000000;fill-opacity:1;fill-rule:nonzero;stroke:none"
                 id="path6278"
                 inkscape:connector-curvature="0"
                 inkscape:export-xdpi="246.48"
                 inkscape:export-ydpi="246.48" /><path
                 d="m 58.762,13.797 c 0,0.512 -1.196,0.058 -1.813,1.004 -0.472,0.722 -0.719,1.586 -1.031,2.347 l -4.277,10.598 c -0.063,0.164 -0.207,0.762 -0.43,0.762 -0.27,0 -0.332,-0.328 -1.547,-2.922 L 44.746,15.09 c -0.535,-1.172 -1.5,-0.82 -1.5,-1.254 0,-0.121 0.063,-0.227 0.188,-0.227 0.531,0 1.089,0.082 1.644,0.082 0.574,0 1.152,-0.082 1.727,-0.082 0.269,0 0.554,-0.062 0.554,0.309 0,0.535 -1.457,-0.082 -1.457,1.359 0,0.266 0.082,0.575 0.141,0.719 l 1.086,2.371 c 0.207,0.43 0.574,0.43 0.969,0.43 l 4.964,-0.07 c 0.579,0 0.7,-0.305 0.907,-0.782 l 0.449,-1.105 c 0.207,-0.555 0.641,-1.5 0.641,-1.953 0,-0.785 -1.239,-0.578 -1.239,-1.071 0,-0.207 0.332,-0.207 0.457,-0.207 0.551,0 1.11,0.082 1.664,0.082 0.844,0 1.684,-0.082 2.532,-0.082 0.144,0 0.289,0 0.289,0.188 m -6.008,5.836 -4.512,0.07 c -0.269,0 -0.414,0.082 -0.269,0.371 l 2.558,5.512 c 0.121,0.246 0.227,0.246 0.328,0 l 2.223,-5.539 c 0.106,-0.27 0.125,-0.414 -0.328,-0.414"
                 style="fill:#000000;fill-opacity:1;fill-rule:nonzero;stroke:none"
                 id="path6280"
                 inkscape:connector-curvature="0"
                 inkscape:export-xdpi="246.48"
                 inkscape:export-ydpi="246.48" /><path
                 d="m 65.711,15.668 0,3.996 c 0,0.309 0.164,0.41 0.492,0.926 l 3.531,5.555 c 0.328,0.511 0.598,1.089 1.153,1.417 0.144,0.083 0.492,0.165 0.492,0.391 0,0.106 -0.102,0.25 -0.227,0.25 -0.593,0 -1.191,-0.082 -1.789,-0.082 -0.496,0 -1.008,0.082 -1.5,0.082 -0.226,0 -0.433,-0.043 -0.433,-0.308 0,-0.497 1.543,-0.063 1.543,-1.071 0,-0.558 -0.289,-0.906 -0.434,-1.133 L 65.77,21.188 c -0.165,-0.27 -0.286,-0.411 -0.391,-0.411 -0.121,0 -0.246,0.121 -0.41,0.368 l -3.164,5.015 c -0.121,0.188 -0.371,0.516 -0.371,0.844 0,0.598 0.968,0.617 0.968,0.969 0,0.187 -0.246,0.207 -0.39,0.207 -0.207,0 -0.762,-0.082 -1.442,-0.082 -1.398,0 -1.789,0.082 -2.347,0.082 -0.141,0 -0.266,-0.168 -0.266,-0.309 0,-0.351 1.008,-0.105 1.543,-0.988 l 4.109,-6.539 c 0.164,-0.246 0.477,-0.656 0.477,-1.051 l 0,-3.934 c 0,-1.461 -1.586,-0.925 -1.586,-1.504 0,-0.226 0.125,-0.246 0.309,-0.246 0.183,0 0.925,0.082 1.851,0.082 0.762,0 1.953,-0.082 2.262,-0.082 0.289,0 0.476,0.02 0.476,0.207 0,0.637 -1.687,0.059 -1.687,1.852"
                 style="fill:#000000;fill-opacity:1;fill-rule:nonzero;stroke:none"
                 id="path6282"
                 inkscape:connector-curvature="0"
                 inkscape:export-xdpi="246.48"
                 inkscape:export-ydpi="246.48" /><path
                 d="m 85.555,16.555 c -0.27,0 -1.504,-2.121 -6.258,-2.121 -1.727,0 -1.563,0.492 -1.563,1.707 l 0,10 c 0,1.789 1.504,1.277 1.504,1.75 0,0.246 -0.125,0.289 -0.394,0.289 -0.305,0 -0.801,-0.082 -1.973,-0.082 -1.012,0 -1.644,0.082 -2.078,0.082 -0.27,0 -0.414,-0.043 -0.414,-0.27 0,-0.41 1.73,-0.265 1.73,-1.336 l 0,-10.433 c 0,-0.969 -0.039,-1.543 -0.578,-1.789 -0.656,-0.332 -0.863,-0.29 -0.902,-0.536 0,-0.164 0.121,-0.207 0.309,-0.207 0.82,0 1.687,0.063 2.507,0.082 1.567,0.043 3.664,-0.082 5.227,-0.082 0.906,0 1.359,-0.039 2.019,0.7 0.489,0.535 1.028,1.257 1.028,1.996 0,0.043 -0.024,0.25 -0.164,0.25"
                 style="fill:#000000;fill-opacity:1;fill-rule:nonzero;stroke:none"
                 id="path6284"
                 inkscape:connector-curvature="0"
                 inkscape:export-xdpi="246.48"
                 inkscape:export-ydpi="246.48" /><path
                 d="m 94.031,28.363 c -4.219,0 -7.551,-3.105 -7.551,-7.386 0,-4.34 2.735,-7.512 7.204,-7.512 4.586,0 7.777,2.984 7.777,7.613 0,4.262 -3.231,7.285 -7.43,7.285 m 0.516,-14.281 c -4.074,0 -6.567,3.684 -6.567,7.492 0,3.25 1.977,6.11 5.438,6.11 4.012,0 6.543,-3.641 6.543,-7.387 0,-3.809 -2.41,-6.215 -5.414,-6.215"
                 style="fill:#000000;fill-opacity:1;fill-rule:nonzero;stroke:none"
                 id="path6286"
                 inkscape:connector-curvature="0"
                 inkscape:export-xdpi="246.48"
                 inkscape:export-ydpi="246.48" /><path
                 d="m 115.504,13.609 c 0.187,0 1.34,0 1.34,0.246 0,0.497 -1.008,-0.265 -2.489,1.997 l -3.437,5.207 c 1.441,0.578 2.59,1.957 2.59,3.558 0,3.973 -4.543,3.563 -4.875,3.563 -1.071,0 -2.242,-0.082 -3.434,-0.082 -1.054,0 -0.949,0.082 -1.32,0.082 -0.246,0 -0.41,-0.125 -0.41,-0.25 0,-0.7 1.769,0.144 1.769,-1.828 l 0,-10.477 c 0,-1.563 -1.5,-1.273 -1.5,-1.789 0,-0.121 0.078,-0.227 0.203,-0.227 0.782,0 1.563,0.082 2.344,0.082 1.711,0 2.184,-0.082 2.371,-0.082 0.164,0 0.348,-0.039 0.348,0.164 0,0.7 -2.141,0.063 -2.141,1.832 l 0,4.344 c 0,0.203 -0.121,0.574 0.535,0.574 2.305,0 1.997,0.063 2.739,-1.089 l 2.281,-3.602 c 0.781,-1.172 1.586,-2.223 3.086,-2.223 m -6.399,7.614 c -0.964,0 -2.242,-0.102 -2.242,0.289 l 0,5.226 c 0,0.801 0.434,0.762 1.172,0.762 2.02,0 3.93,-0.844 3.93,-3.355 0,-2.551 -1.973,-2.922 -2.86,-2.922"
                 style="fill:#000000;fill-opacity:1;fill-rule:nonzero;stroke:none"
                 id="path6288"
                 inkscape:connector-curvature="0"
                 inkscape:export-xdpi="246.48"
                 inkscape:export-ydpi="246.48" /><path
                 d="m 35.875,10.297 -0.027,0 c -0.004,0 -0.008,0 -0.008,0 l -0.024,0 c -0.004,0 -0.004,0 -0.007,0 l -0.141,-0.004 c -0.23,-0.027 -0.465,-0.047 -0.59,-0.047 -0.125,0 -0.215,0.008 -0.34,0.027 -0.09,0.02 -0.183,0.024 -0.226,0.024 0,0 -0.004,0 -0.008,0 -0.012,0 -0.02,0 -0.027,0 l -0.032,0 c -0.082,0 -0.129,-0.039 -0.129,-0.106 0,-0.07 0.063,-0.109 0.192,-0.125 0.562,-0.054 0.644,-0.214 0.644,-1.265 0,-1.406 -0.05,-1.871 -0.23,-2.223 C 34.707,6.172 34.18,5.91 33.566,5.902 33.07,5.91 32.715,6.051 32.488,6.328 32.238,6.633 32.156,7.055 32.156,8.055 l 0.02,1.465 c 0.008,0.156 0.027,0.277 0.066,0.363 0.043,0.105 0.164,0.179 0.332,0.207 0.125,0.019 0.168,0.055 0.168,0.121 0,0.062 -0.043,0.094 -0.125,0.094 -0.008,0 -0.019,0 -0.027,0 -0.004,0 -0.004,0 -0.012,0 -0.004,0 -0.012,0 -0.019,0 -0.004,0 -0.004,0 -0.008,0 -0.043,0 -0.11,-0.008 -0.168,-0.012 -0.235,-0.035 -0.453,-0.047 -0.641,-0.047 -0.199,0 -0.406,0.012 -0.648,0.047 -0.063,0.004 -0.098,0.004 -0.137,0.004 l -0.066,0 c -0.102,0 -0.164,-0.039 -0.164,-0.113 0,-0.063 0.054,-0.102 0.175,-0.122 0.286,-0.035 0.407,-0.089 0.485,-0.191 0.058,-0.09 0.074,-0.183 0.074,-0.656 L 31.453,7.766 c 0,-0.864 0.102,-1.301 0.367,-1.606 0.317,-0.367 0.899,-0.578 1.598,-0.578 0.004,0 0.008,0.004 0.016,0.004 0.004,0 0.007,-0.004 0.011,-0.004 0.008,0 0.012,0.004 0.02,0.004 0.008,0 0.012,-0.004 0.019,-0.004 0.731,0 1.301,0.23 1.629,0.664 0.274,0.359 0.348,0.699 0.375,1.707 l 0.035,1.09 c 0.008,0.363 0.012,0.586 0.012,0.625 0.027,0.246 0.102,0.352 0.305,0.406 0.129,0.035 0.172,0.063 0.172,0.117 0,0.067 -0.047,0.106 -0.137,0.106"
                 style="fill:#000000;fill-opacity:1;fill-rule:nonzero;stroke:none"
                 id="path6290"
                 inkscape:connector-curvature="0"
                 inkscape:export-xdpi="246.48"
                 inkscape:export-ydpi="246.48" /><path
                 d="m 63.57,10.25 -0.027,0 c -0.004,0 -0.004,0 -0.008,0 l -0.023,0 c -0.004,0 -0.004,0 -0.008,0 l -0.16,-0.008 c -0.153,-0.015 -0.324,-0.023 -0.516,-0.023 -0.242,0 -0.445,0.011 -0.613,0.031 -0.098,0.016 -0.18,0.02 -0.242,0.02 l -0.067,0 c -0.074,0 -0.121,-0.04 -0.121,-0.102 0,-0.059 0.059,-0.102 0.168,-0.121 0.414,-0.074 0.414,-0.074 0.516,-0.168 0.047,-0.043 0.074,-0.117 0.074,-0.191 0,-0.161 -0.059,-0.344 -0.324,-0.989 C 61.797,7.711 61.797,7.711 61.484,7.012 61.41,6.836 61.363,6.734 61.332,6.668 61.293,6.605 61.258,6.582 61.23,6.574 61.152,6.602 61.074,6.848 60.746,7.73 c -0.508,1.375 -0.508,1.375 -0.684,1.809 -0.035,0.09 -0.054,0.176 -0.054,0.231 0,0.164 0.156,0.25 0.543,0.304 0.094,0.012 0.137,0.047 0.137,0.11 0,0.066 -0.055,0.109 -0.137,0.109 l -0.067,0 c -0.035,0 -0.109,-0.008 -0.175,-0.023 -0.145,-0.024 -0.391,-0.04 -0.668,-0.04 -0.364,0 -0.621,0.016 -0.789,0.047 -0.071,0.016 -0.125,0.02 -0.153,0.02 -0.004,0 -0.004,0 -0.011,0 -0.004,0 -0.02,0 -0.024,0 -0.004,0 -0.008,0 -0.008,0 -0.008,0 -0.015,0 -0.023,0 C 58.547,10.293 58.5,10.25 58.5,10.184 c 0,-0.055 0.039,-0.098 0.133,-0.118 0.504,-0.121 0.512,-0.128 0.625,-0.398 0.176,-0.426 0.304,-0.746 0.387,-0.961 0.343,-0.875 0.625,-1.582 0.839,-2.113 0.215,-0.535 0.215,-0.535 0.344,-0.903 0.027,-0.062 0.055,-0.105 0.082,-0.132 0.012,-0.036 0.028,-0.051 0.051,-0.051 0.008,0 0.019,0.004 0.027,0.004 0.004,0 0.008,-0.004 0.012,-0.004 0.059,0 0.098,0.008 0.273,0.355 0.508,0.992 1.274,2.614 1.579,3.379 0.238,0.547 0.355,0.696 0.609,0.75 0.219,0.047 0.258,0.07 0.258,0.153 0,0.066 -0.059,0.105 -0.149,0.105"
                 style="fill:#000000;fill-opacity:1;fill-rule:nonzero;stroke:none"
                 id="path6292"
                 inkscape:connector-curvature="0"
                 inkscape:export-xdpi="246.48"
                 inkscape:export-ydpi="246.48" /><path
                 d="m 46.117,10.293 c -0.004,0 -0.012,0 -0.023,-0.004 -0.004,0 -0.008,0.004 -0.016,0.004 -0.004,0 -0.008,0 -0.016,-0.004 -0.003,0 -0.007,0.004 -0.011,0.004 -0.016,0 -0.043,-0.008 -0.137,-0.02 -0.156,-0.019 -0.297,-0.035 -0.445,-0.035 -0.207,0 -0.449,0.016 -0.699,0.039 -0.071,0.008 -0.129,0.016 -0.18,0.016 -0.004,0 -0.004,-0.004 -0.008,-0.004 -0.008,0.004 -0.02,0.004 -0.027,0.004 l -0.028,0 c -0.089,0 -0.144,-0.043 -0.144,-0.102 0,-0.046 0.055,-0.082 0.148,-0.097 0.375,-0.051 0.504,-0.114 0.614,-0.317 0.113,-0.199 0.16,-0.597 0.16,-1.363 0,-0.434 -0.02,-1.488 -0.035,-1.543 0,-0.019 -0.008,-0.027 -0.012,-0.035 -0.051,0.023 -0.11,0.094 -0.184,0.211 -0.84,1.062 -1.187,1.484 -2.277,2.75 -0.137,0.164 -0.258,0.305 -0.297,0.359 -0.09,0.11 -0.156,0.156 -0.219,0.156 -0.004,0 -0.015,0 -0.023,0 -0.004,0 -0.008,0 -0.012,0 -0.008,0 -0.016,0 -0.019,0 -0.004,0 -0.008,0 -0.012,0 -0.02,0 -0.059,-0.007 -0.106,-0.015 -0.07,-0.016 -0.179,-0.024 -0.324,-0.024 -0.172,0 -0.316,0.004 -0.398,0.02 -0.059,0.004 -0.121,0.012 -0.153,0.012 -0.004,0 -0.007,0 -0.011,0 -0.008,0 -0.02,0 -0.028,0 -0.004,0 -0.004,0 -0.007,0 -0.008,0 -0.016,0 -0.02,0 -0.082,0 -0.152,-0.047 -0.152,-0.114 0,-0.082 0.07,-0.117 0.238,-0.129 0.504,-0.027 0.668,-0.281 0.668,-0.988 l 0,-0.035 0,0.035 C 41.922,8.34 41.879,6.918 41.848,6.586 41.836,6.484 41.824,6.395 41.809,6.316 L 41.758,6.16 C 41.699,6.023 41.613,5.945 41.477,5.895 41.305,5.84 41.277,5.82 41.277,5.758 c 0,-0.059 0.063,-0.102 0.145,-0.102 0.008,0 0.016,0 0.023,0 0,0 0.004,0 0.004,0 l 0.004,0 c 0.008,0 0.016,0 0.027,0 0.004,0 0.004,0 0.008,0 l 0.004,0 c 0.039,0 0.113,0.008 0.18,0.02 0.133,0.027 0.277,0.035 0.43,0.043 0.148,-0.008 0.296,-0.016 0.429,-0.043 0.067,-0.012 0.141,-0.02 0.184,-0.02 0,0 0.004,0 0.004,0 0.008,0 0.015,0 0.023,0 0.004,0 0.004,0 0.008,0 0.012,0 0.02,0 0.031,0 0.078,0 0.141,0.043 0.141,0.102 0,0.062 -0.027,0.082 -0.195,0.137 -0.247,0.089 -0.332,0.257 -0.372,0.691 -0.031,0.258 -0.058,1.168 -0.07,1.906 l 0.004,0.43 0,0.258 c 0.004,0.011 0.008,0.015 0.012,0.023 0.027,-0.019 0.066,-0.055 0.113,-0.109 0.031,-0.043 0.121,-0.137 0.258,-0.266 0.078,-0.062 0.598,-0.648 1.066,-1.234 0.258,-0.309 0.614,-0.746 1.074,-1.293 0.18,-0.219 0.352,-0.426 0.399,-0.496 0.101,-0.141 0.184,-0.215 0.242,-0.215 0.004,0 0.008,0.004 0.012,0.004 0.008,0 0.012,-0.004 0.019,-0.004 0.004,0 0.008,0.004 0.016,0.008 0.008,-0.004 0.016,-0.008 0.02,-0.008 0.074,0 0.109,0.086 0.109,0.277 0,0.176 0.008,0.988 0.019,2.43 0.008,0.762 0.02,1.254 0.036,1.363 0.027,0.238 0.121,0.332 0.406,0.406 0.094,0.024 0.129,0.055 0.129,0.11 0,0.074 -0.035,0.117 -0.102,0.117"
                 style="fill:#000000;fill-opacity:1;fill-rule:nonzero;stroke:none"
                 id="path6294"
                 inkscape:connector-curvature="0"
                 inkscape:export-xdpi="246.48"
                 inkscape:export-ydpi="246.48" /><path
                 d="m 107.363,9.945 c -0.035,0.321 -0.035,0.332 -0.168,0.332 -0.007,0 -0.015,0 -0.023,0 -0.004,0 -0.008,0 -0.016,0 -0.004,0 -0.011,0 -0.015,0 -0.004,0 -0.008,0 -0.016,0 -0.051,0 -0.16,-0.007 -0.254,-0.011 -0.441,-0.028 -0.84,-0.039 -1.148,-0.043 -0.344,0.004 -1.149,0.023 -2.094,0.054 -0.074,0.008 -0.133,0.008 -0.168,0.008 -0.004,0 -0.008,0 -0.012,0 -0.008,0 -0.019,0 -0.027,0 0,0 -0.004,0 -0.008,0 -0.004,0 -0.016,0 -0.019,0 -0.196,0 -0.266,-0.035 -0.266,-0.137 0,-0.277 0,-0.304 -0.082,-0.777 -0.02,-0.082 -0.024,-0.164 -0.024,-0.223 0,-0.043 0.016,-0.082 0.043,-0.109 0.012,-0.035 0.032,-0.055 0.075,-0.055 0.007,0 0.011,0.004 0.019,0.004 0.004,0 0.008,-0.004 0.016,-0.004 0.074,0 0.144,0.067 0.164,0.231 0.019,0.219 0.094,0.387 0.203,0.48 0.176,0.153 0.496,0.239 0.926,0.243 0.316,-0.004 0.41,-0.075 0.422,-0.305 l 0.027,-3.055 c 0,-0.496 -0.094,-0.617 -0.535,-0.683 -0.156,-0.02 -0.238,-0.067 -0.238,-0.137 0,-0.051 0.062,-0.094 0.128,-0.094 0.008,0 0.016,0 0.024,0 0,0 0.004,0 0.008,0 0.007,0 0.015,0 0.023,0 0.004,0 0.008,0 0.012,0 0.043,0 0.09,0.008 0.152,0.016 0.254,0.031 0.524,0.05 0.863,0.05 0.282,0 0.555,-0.019 0.77,-0.05 0.063,-0.008 0.121,-0.016 0.148,-0.016 0.004,0 0.004,0 0.008,0 0.008,0 0.016,0 0.02,0 0.004,0 0.008,0 0.011,0 0.012,0 0.02,0 0.028,0 0.082,0 0.137,0.043 0.137,0.094 0,0.062 -0.063,0.094 -0.176,0.117 -0.539,0.074 -0.66,0.176 -0.66,0.57 0,0.047 -0.004,0.262 -0.012,0.493 -0.012,0.656 -0.02,1.031 -0.02,1.449 0,1.113 0.008,1.293 0.043,1.375 0.043,0.113 0.164,0.16 0.442,0.164 0.39,-0.004 0.617,-0.051 0.777,-0.149 0.16,-0.113 0.277,-0.304 0.289,-0.507 0.008,-0.055 0.024,-0.098 0.047,-0.125 0.008,-0.036 0.02,-0.051 0.051,-0.051 0.008,0 0.012,0.004 0.019,0.004 0.004,0 0.012,-0.004 0.02,-0.004 0.082,0 0.16,0.078 0.16,0.203 0,0.101 -0.008,0.121 -0.047,0.351 -0.027,0.11 -0.039,0.211 -0.047,0.297"
                 style="fill:#000000;fill-opacity:1;fill-rule:nonzero;stroke:none"
                 id="path6296"
                 inkscape:connector-curvature="0"
                 inkscape:export-xdpi="246.48"
                 inkscape:export-ydpi="246.48" /><path
                 d="m 89.371,8.363 c -0.766,0.321 -0.953,0.407 -1.082,0.551 -0.098,0.098 -0.156,0.246 -0.164,0.395 -0.012,0.41 0.32,0.73 0.77,0.761 0.585,0.004 1.07,-0.449 1.234,-1.168 0.012,-0.05 0.035,-0.09 0.062,-0.117 0.012,-0.031 0.028,-0.047 0.063,-0.047 0.004,0 0.012,0.004 0.016,0.004 0.003,0 0.011,-0.004 0.019,-0.004 0.063,0.004 0.133,0.051 0.129,0.125 0,0.055 -0.008,0.117 -0.023,0.192 -0.043,0.199 -0.059,0.383 -0.067,0.539 -0.004,0.094 0,0.215 0.008,0.367 0.008,0.031 0.004,0.074 0.004,0.086 -0.004,0.082 -0.074,0.137 -0.133,0.133 -0.012,0 -0.016,0 -0.019,-0.004 -0.008,0 -0.012,0.004 -0.02,0.004 -0.023,0 -0.027,-0.008 -0.035,-0.02 -0.02,-0.012 -0.039,-0.019 -0.051,-0.039 -0.023,-0.031 -0.047,-0.047 -0.066,-0.055 -0.02,0.004 -0.043,0.016 -0.067,0.028 -0.281,0.148 -0.644,0.238 -0.949,0.23 -0.004,-0.004 -0.008,-0.004 -0.012,-0.004 -0.008,0 -0.015,0.004 -0.027,0.004 C 88.914,10.32 88.867,10.316 88.816,10.312 88.086,10.234 87.539,9.688 87.562,9.02 87.578,8.531 87.848,8.184 88.418,7.926 89.48,7.43 89.48,7.43 89.582,7.367 89.859,7.184 89.973,7.008 89.984,6.73 90,6.277 89.594,5.871 89.109,5.84 c -0.566,0.008 -1.171,0.558 -1.363,1.254 -0.039,0.14 -0.121,0.207 -0.187,0.203 -0.008,0 -0.012,0 -0.016,-0.004 -0.008,0 -0.016,0.004 -0.02,0.004 -0.035,0 -0.05,-0.02 -0.058,-0.047 -0.024,-0.027 -0.039,-0.059 -0.035,-0.098 0,-0.043 0.008,-0.101 0.023,-0.156 0.141,-0.551 0.141,-0.57 0.152,-0.726 0.02,-0.321 0.02,-0.321 0.122,-0.383 0.3,-0.188 0.785,-0.305 1.23,-0.289 0.012,0 0.023,0 0.031,0 l 0.035,0 c 0.875,0.031 1.512,0.64 1.485,1.425 -0.02,0.625 -0.352,1.02 -1.137,1.34"
                 style="fill:#000000;fill-opacity:1;fill-rule:nonzero;stroke:none"
                 id="path6298"
                 inkscape:connector-curvature="0"
                 inkscape:export-xdpi="246.48"
                 inkscape:export-ydpi="246.48" /><path
                 d="m 116.738,10.312 c -0.011,0 -0.019,0 -0.027,0 -0.004,0 -0.008,0 -0.012,0 -0.004,0 -0.015,0 -0.023,0 0,0 -0.004,0 -0.004,0 -0.051,0 -0.098,-0.007 -0.156,-0.019 -0.121,-0.02 -0.278,-0.031 -0.485,-0.035 -0.23,0.004 -0.433,0.015 -0.574,0.039 -0.082,0.015 -0.164,0.023 -0.203,0.023 -0.004,0 -0.008,-0.004 -0.008,-0.004 -0.012,0 -0.023,0.004 -0.031,0.004 0,0 -0.004,-0.004 -0.004,-0.004 -0.008,0 -0.016,0.004 -0.023,0.004 -0.075,0 -0.129,-0.043 -0.129,-0.097 0,-0.059 0.046,-0.086 0.148,-0.102 0.371,-0.047 0.516,-0.152 0.516,-0.391 0,-0.164 -0.082,-0.332 -0.535,-1.058 -0.141,-0.227 -0.208,-0.348 -0.247,-0.414 -0.046,-0.055 -0.074,-0.074 -0.093,-0.078 -0.063,0.027 -0.184,0.281 -0.578,1 -0.344,0.629 -0.344,0.629 -0.344,0.711 0,0.109 0.101,0.183 0.304,0.222 0.11,0.024 0.149,0.055 0.149,0.11 0,0.054 -0.055,0.097 -0.113,0.097 -0.008,0 -0.024,-0.004 -0.036,-0.004 0,0 0,0.004 -0.003,0.004 -0.004,0 -0.016,-0.004 -0.024,-0.004 -0.004,0 -0.004,0.004 -0.008,0.004 -0.015,0 -0.05,0 -0.086,-0.008 -0.234,-0.039 -0.5,-0.058 -0.769,-0.062 -0.246,0.004 -0.449,0.023 -0.625,0.055 -0.043,0.007 -0.09,0.015 -0.117,0.015 -0.004,0 -0.008,-0.004 -0.012,-0.004 -0.008,0 -0.02,0.004 -0.027,0.004 0,0 -0.004,-0.004 -0.008,-0.004 -0.004,0 -0.016,0.004 -0.02,0.004 -0.066,0 -0.113,-0.043 -0.113,-0.101 0,-0.071 0.039,-0.098 0.168,-0.117 0.32,-0.047 0.465,-0.188 0.801,-0.782 0.203,-0.359 0.48,-0.836 0.617,-1.058 0.269,-0.442 0.297,-0.524 0.297,-0.891 0,-0.508 -0.016,-1.004 -0.035,-1.098 -0.047,-0.207 -0.204,-0.324 -0.5,-0.351 -0.157,-0.02 -0.235,-0.059 -0.235,-0.137 0,-0.058 0.059,-0.101 0.137,-0.101 0.008,0 0.016,0.004 0.023,0.004 0,0 0.004,-0.004 0.008,-0.004 0.008,0 0.02,0.004 0.028,0.004 0.003,0 0.003,-0.004 0.007,-0.004 0.063,0 0.125,0.007 0.2,0.015 0.191,0.024 0.398,0.031 0.718,0.031 0.278,0 0.571,-0.011 0.766,-0.031 0.078,-0.008 0.184,-0.015 0.203,-0.015 0.004,0 0.008,0.004 0.008,0.004 0.008,0 0.019,-0.004 0.019,-0.004 0.004,0 0.008,0.004 0.016,0.004 0.008,0 0.02,-0.004 0.024,-0.004 0.113,0 0.167,0.035 0.167,0.109 0,0.062 -0.058,0.094 -0.183,0.102 -0.336,0.015 -0.531,0.093 -0.602,0.257 -0.058,0.114 -0.074,0.426 -0.074,1.328 0,0.262 0.02,0.317 0.332,0.805 0.297,0.461 0.551,0.867 0.758,1.215 0.273,0.438 0.336,0.5 0.598,0.586 0.117,0.043 0.156,0.078 0.156,0.137 0,0.047 -0.047,0.089 -0.102,0.089"
                 style="fill:#000000;fill-opacity:1;fill-rule:nonzero;stroke:none"
                 id="path6300"
                 inkscape:connector-curvature="0"
                 inkscape:export-xdpi="246.48"
                 inkscape:export-ydpi="246.48" /><path
                 d="m 72.395,6.625 c -0.004,0 -0.012,0 -0.016,-0.008 -0.008,0.004 -0.012,0.008 -0.02,0.008 C 72.312,6.625 72.234,6.43 71.938,6.25 71.668,6.098 71.25,5.957 70.574,5.953 70.07,5.961 70.117,6.121 70.117,6.496 l 0,1.199 c 0,0.098 -0.019,0.207 0.117,0.207 l 0.903,0 c 0.25,0 0.347,-0.121 0.394,-0.25 0.043,-0.156 0.016,-0.324 0.125,-0.324 0.008,0 0.016,0.004 0.024,0.004 0.004,0 0.008,-0.004 0.015,-0.004 0.047,0 0.102,0.027 0.102,0.086 0,0.176 -0.008,0.348 -0.008,0.516 0,0.207 0.008,0.429 0.008,0.656 0,0.055 -0.051,0.125 -0.102,0.125 -0.007,0 -0.015,0 -0.023,-0.004 -0.004,0.004 -0.012,0.004 -0.016,0.004 -0.082,0 -0.062,-0.149 -0.129,-0.289 C 71.453,8.301 71.316,8.191 71.004,8.191 l -0.637,0 c -0.262,0 -0.25,0 -0.25,0.223 l 0,1.211 c 0,0.383 -0.008,0.41 0.406,0.414 0.043,0 0.086,-0.004 0.141,-0.004 l 0.066,0 c 0.055,0 0.133,0.004 0.219,0.004 0.309,0 0.699,-0.023 0.824,-0.187 C 71.82,9.785 71.832,9.68 71.844,9.59 71.84,9.48 71.84,9.391 71.926,9.391 c 0.008,0 0.012,0 0.019,0.004 0.008,0 0.008,-0.004 0.016,-0.004 0.043,0 0.164,0.054 0.164,0.773 0,0.082 -0.012,0.148 -0.063,0.148 l -0.07,0 c -0.195,0 -0.762,-0.027 -0.914,-0.027 -0.285,0.004 -0.793,0.027 -1.957,0.027 l -0.066,0 c -0.188,0 -0.227,-0.027 -0.227,-0.078 0,-0.082 0.141,-0.093 0.195,-0.105 0.352,-0.055 0.352,-0.367 0.352,-0.66 l 0,-2.973 c 0,-0.308 -0.012,-0.492 -0.184,-0.566 -0.207,-0.106 -0.273,-0.094 -0.285,-0.172 0,-0.051 0.039,-0.067 0.098,-0.067 l 0.066,0 c 0.258,0 0.696,0.02 0.957,0.028 0.102,0.004 0.207,0.004 0.313,0.004 0.367,-0.008 0.738,-0.032 1.109,-0.032 l 0.129,0 c 0.246,0 0.383,0.004 0.574,0.223 0.157,0.172 0.293,0.398 0.293,0.633 0,0.012 -0.004,0.078 -0.05,0.078"
                 style="fill:#000000;fill-opacity:1;fill-rule:nonzero;stroke:none"
                 id="path6302"
                 inkscape:connector-curvature="0"
                 inkscape:export-xdpi="246.48"
                 inkscape:export-ydpi="246.48" /><path
                 d="m 81.516,6.375 -1.024,1.547 c 0.215,0.074 0.352,0.148 0.465,0.258 0.195,0.179 0.367,0.562 0.367,0.843 0,0.266 -0.074,0.497 -0.203,0.688 -0.207,0.387 -0.625,0.516 -0.957,0.559 -0.121,0.015 -0.246,0.027 -0.379,0.027 l -0.066,0 c -0.114,0 -0.297,-0.004 -0.516,-0.02 l -0.008,-0.004 c -0.246,-0.003 -0.504,-0.015 -0.734,-0.015 -0.293,0 -0.27,0.023 -0.383,0.023 -0.004,0 -0.004,0 -0.008,0 -0.008,0 -0.015,0 -0.027,0 -0.004,0 -0.004,0 -0.008,0 -0.004,0 -0.015,0 -0.023,0 -0.078,0 -0.129,-0.039 -0.129,-0.078 0,-0.223 0.558,0.047 0.558,-0.578 l 0,-3.32 c 0,-0.496 -0.476,-0.407 -0.476,-0.571 0,-0.035 0.027,-0.07 0.066,-0.07 l 0.067,0 c 0.242,0 0.597,0.024 0.843,0.027 0.5,-0.003 0.645,-0.027 0.704,-0.027 l 0.046,0 c 0.012,0 0.02,0 0.032,0 0.047,-0.004 0.097,-0.008 0.097,0.051 0,0.223 -0.679,0.019 -0.679,0.582 l 0,1.375 c 0,0.066 -0.039,0.183 0.171,0.183 0.032,0 0.059,0 0.09,0 0.457,0 0.41,-0.031 0.614,-0.347 l 0.726,-1.141 c 0.246,-0.371 0.5,-0.703 0.977,-0.703 l 0.16,0 c 0.059,0 0.426,0 0.426,0.078 0,0.156 -0.321,-0.086 -0.789,0.633 m -1.731,1.699 c -0.097,0 -0.203,0 -0.305,0 -0.187,0 -0.339,0.02 -0.339,0.094 l 0,1.656 c 0,0.223 0.105,0.242 0.285,0.242 l 0.023,0 c 0.637,0 1.242,-0.269 1.242,-1.062 0,-0.809 -0.625,-0.93 -0.906,-0.93"
                 style="fill:#000000;fill-opacity:1;fill-rule:nonzero;stroke:none"
                 id="path6304"
                 inkscape:connector-curvature="0"
                 inkscape:export-xdpi="246.48"
                 inkscape:export-ydpi="246.48" /><path
                 d="m 97.73,10.09 c 0.09,0.004 0.122,0.031 0.122,0.086 0,0.066 -0.047,0.109 -0.129,0.109 -0.008,0 -0.016,0 -0.028,0 -0.004,0 -0.004,0 -0.011,0 -0.004,0 -0.012,0 -0.02,0 0,0 -0.004,0 -0.008,0 -0.047,0 -0.14,-0.015 -0.254,-0.027 -0.136,-0.028 -0.246,-0.035 -0.367,-0.035 l -0.152,0 c -0.121,0 -0.231,0.007 -0.363,0.035 -0.118,0.012 -0.211,0.027 -0.258,0.027 -0.004,0 -0.008,0 -0.008,0 -0.012,0 -0.024,0 -0.027,0 -0.008,0 -0.008,0 -0.012,0 -0.004,0 -0.012,0 -0.02,0 -0.082,0 -0.129,-0.043 -0.129,-0.109 0,-0.055 0.036,-0.082 0.122,-0.086 0.292,-0.047 0.386,-0.199 0.386,-0.613 0,-0.125 0.028,-0.286 0.031,-0.715 0.008,-0.442 0,-0.739 0,-0.957 L 96.586,6.586 C 96.578,6.445 96.574,6.312 96.551,6.207 96.512,6.008 96.418,5.91 96.242,5.875 96.121,5.848 96.078,5.82 96.078,5.754 c 0,-0.047 0.055,-0.098 0.117,-0.098 0.008,0 0.016,0.004 0.02,0.004 0.004,0 0.004,-0.004 0.008,-0.004 0.007,0 0.019,0.004 0.027,0.004 0.004,0 0.008,-0.004 0.012,-0.004 0.047,0 0.105,0.008 0.176,0.028 0.128,0.031 0.292,0.043 0.523,0.046 0.223,-0.003 0.391,-0.015 0.523,-0.046 0.067,-0.02 0.129,-0.028 0.176,-0.028 0,0 0.004,0.004 0.004,0.004 0.008,0 0.016,-0.004 0.024,-0.004 0.003,0 0.007,0.004 0.011,0.004 0.008,0 0.016,-0.004 0.024,-0.004 0.062,0 0.117,0.051 0.117,0.098 0,0.066 -0.039,0.094 -0.164,0.121 C 97.5,5.91 97.406,6.008 97.367,6.207 97.344,6.312 97.34,6.445 97.332,6.586 l -0.02,1.219 c 0,0.218 0.004,0.515 0,0.957 -0.007,0.429 0.032,0.59 0.032,0.715 0,0.414 0.097,0.566 0.386,0.613"
                 style="fill:#000000;fill-opacity:1;fill-rule:nonzero;stroke:none"
                 id="path6306"
                 inkscape:connector-curvature="0"
                 inkscape:export-xdpi="246.48"
                 inkscape:export-ydpi="246.48" /><path
                 d="m 53.254,10.09 c 0.09,0.004 0.121,0.031 0.121,0.086 0,0.066 -0.047,0.109 -0.125,0.109 -0.008,0 -0.02,0 -0.027,0 -0.004,0 -0.008,0 -0.012,0 -0.004,0 -0.016,0 -0.023,0 0,0 -0.004,0 -0.008,0 -0.047,0 -0.141,-0.015 -0.254,-0.027 -0.137,-0.028 -0.246,-0.035 -0.367,-0.035 l -0.149,0 c -0.121,0 -0.23,0.007 -0.367,0.035 -0.117,0.012 -0.211,0.027 -0.258,0.027 -0.004,0 -0.008,0 -0.012,0 -0.007,0 -0.019,0 -0.023,0 -0.004,0 -0.008,0 -0.012,0 -0.004,0 -0.011,0 -0.019,0 -0.082,0 -0.129,-0.043 -0.129,-0.109 0,-0.055 0.035,-0.082 0.121,-0.086 0.293,-0.047 0.387,-0.199 0.387,-0.613 0,-0.125 0.027,-0.286 0.035,-0.715 0.008,-0.442 0,-0.739 0,-0.957 L 52.113,6.586 C 52.105,6.445 52.098,6.312 52.078,6.207 52.035,6.008 51.941,5.91 51.766,5.875 51.645,5.848 51.602,5.82 51.602,5.754 c 0,-0.047 0.054,-0.098 0.117,-0.098 0.004,0 0.015,0.004 0.019,0.004 0.004,0 0.008,-0.004 0.008,-0.004 0.008,0 0.02,0.004 0.027,0.004 0.004,0 0.008,-0.004 0.012,-0.004 0.047,0 0.106,0.008 0.176,0.028 0.133,0.031 0.297,0.043 0.523,0.046 0.227,-0.003 0.391,-0.015 0.524,-0.046 0.066,-0.02 0.129,-0.028 0.176,-0.028 0,0 0.004,0.004 0.007,0.004 0.004,0 0.016,-0.004 0.02,-0.004 0.004,0 0.008,0.004 0.012,0.004 0.007,0 0.019,-0.004 0.027,-0.004 0.059,0 0.113,0.051 0.113,0.098 0,0.066 -0.043,0.094 -0.16,0.121 -0.176,0.035 -0.269,0.133 -0.312,0.332 -0.02,0.105 -0.028,0.238 -0.036,0.379 l -0.019,1.219 c 0,0.218 0.008,0.515 0,0.957 -0.008,0.429 0.031,0.59 0.031,0.715 0,0.414 0.098,0.566 0.387,0.613"
                 style="fill:#000000;fill-opacity:1;fill-rule:nonzero;stroke:none"
                 id="path6308"
                 inkscape:connector-curvature="0"
                 inkscape:export-xdpi="246.48"
                 inkscape:export-ydpi="246.48" /><path
                 style="fill:#000000;fill-opacity:1;fill-rule:nonzero;stroke:none"
                 d="M 14.628906 0 C 8.6476562 0 3.1303906 2.7044531 0.24414062 7.0644531 L 0 7.4316406 L 0 47.962891 L 29.257812 47.962891 L 29.257812 7.4257812 L 29.019531 7.0605469 C 27.608281 4.9417969 25.546875 3.1638281 23.046875 1.9238281 C 20.511875 0.66382813 17.602656 0 14.628906 0 z M 14.628906 1.4550781 C 20.317656 1.4550781 25.268984 4.0484375 27.802734 7.8671875 L 27.802734 46.513672 L 1.4550781 46.513672 L 1.4550781 7.8710938 C 3.9850781 4.0473437 8.9351563 1.4550781 14.628906 1.4550781 z "
                 transform="matrix(0.8,0,0,-0.8,0,39)"
                 id="path6310"
                 inkscape:export-xdpi="246.48"
                 inkscape:export-ydpi="246.48" /><path
                 style="fill:#000000;fill-opacity:1;fill-rule:nonzero;stroke:none"
                 d="M 14.628906 2.9042969 C 9.7751572 2.9042969 5.3267969 4.9704685 2.9042969 8.3242188 L 2.9042969 35.462891 L 4.2929688 35.332031 L 4.3066406 34.316406 C 4.2928906 34.292656 4.2928906 34.267031 4.3066406 34.238281 L 4.3164062 33.789062 L 4.671875 33.755859 C 4.623125 33.697109 4.5753125 33.626953 4.5703125 33.564453 C 4.5603125 33.495703 4.6239063 33.423203 4.6289062 33.345703 C 4.6339063 33.266953 4.6386719 33.184219 4.6386719 33.105469 C 4.6386719 32.984219 4.5848436 32.889063 4.5898438 32.757812 C 4.5898438 32.714062 4.4822656 32.533516 4.5410156 32.509766 C 4.5697656 32.494766 4.5945314 32.484453 4.6132812 32.470703 C 4.6095312 32.435703 4.6053906 32.407344 4.6191406 32.402344 C 4.7466406 32.353594 4.7521094 32.305312 4.8496094 32.226562 C 4.8733594 32.212812 4.8884375 32.1975 4.8984375 32.1875 C 4.8934375 32.1625 4.869375 32.134062 4.859375 32.070312 L 4.8867188 32.041016 L 4.8867188 32.037109 C 4.8867188 32.032109 4.8979685 32.026719 4.9179688 32.011719 C 4.9229687 31.987969 4.9165625 31.948828 4.9453125 31.923828 C 4.9453125 31.923828 4.9507031 31.918203 4.9707031 31.908203 C 4.9844531 31.899453 5.0254688 31.884531 5.0742188 31.894531 C 5.1029688 31.894531 5.1283594 31.899219 5.1621094 31.917969 C 5.1908594 31.942969 5.1844531 31.982109 5.1894531 32.005859 C 5.1894531 32.010859 5.1953125 32.015391 5.1953125 32.025391 C 5.2003125 32.025391 5.2000781 32.03125 5.2050781 32.03125 C 5.2200781 32.04125 5.2430469 32.055703 5.2480469 32.064453 C 5.2342969 32.133203 5.2050781 32.163359 5.2050781 32.193359 C 5.2150781 32.203359 5.2245313 32.211953 5.2382812 32.220703 C 5.3407813 32.294453 5.3521094 32.342969 5.4746094 32.386719 C 5.4896094 32.391719 5.489375 32.422422 5.484375 32.451172 C 5.503125 32.466172 5.5326562 32.480234 5.5664062 32.490234 C 5.6201563 32.510234 5.5125781 32.700391 5.5175781 32.744141 C 5.5175781 32.876641 5.46375 32.974297 5.46875 33.091797 C 5.46875 33.169297 5.4746094 33.252578 5.4746094 33.330078 C 5.4846094 33.408828 5.5432031 33.477031 5.5332031 33.550781 C 5.5282031 33.594531 5.5025 33.646563 5.46875 33.695312 L 6.7128906 33.59375 C 6.7328906 33.30625 6.7441406 33.29125 6.7441406 33.28125 L 6.7441406 33.275391 L 6.7382812 32.958984 C 6.7332813 32.358984 6.7296094 32.841094 6.7246094 32.246094 C 6.7196094 31.801094 6.7139844 30.766016 6.7089844 30.322266 L 6.7089844 30.292969 C 6.7089844 30.244219 6.6855469 30.200234 6.6855469 30.146484 C 6.6855469 30.122734 6.7089844 29.804531 6.7089844 29.769531 C 6.7089844 29.697031 6.6445314 29.648594 6.6445312 29.589844 C 6.6445312 29.564844 6.6846094 29.569766 6.6933594 29.541016 C 6.7083594 29.511016 6.703125 29.468203 6.703125 29.439453 C 6.703125 29.331953 6.6491406 29.243359 6.5566406 29.193359 C 6.4978906 29.159609 6.5136719 29.105625 6.5136719 29.046875 C 6.5136719 28.988125 6.4707031 28.945234 6.4707031 28.896484 C 6.4707031 28.837734 6.3267188 28.858125 6.2929688 28.828125 C 6.2392188 28.789375 6.2351562 28.702186 6.1914062 28.648438 C 6.1476562 28.594687 6.1222656 28.458281 6.1035156 28.394531 C 6.0885156 28.320781 5.9474219 28.017812 6.0449219 28.007812 C 6.1474219 27.949063 6.6503906 27.939063 6.6503906 27.757812 C 6.6503906 27.694063 6.6355469 27.612578 6.6542969 27.548828 C 6.6742969 27.485078 6.7292969 27.445703 6.7480469 27.376953 C 6.7730469 27.279453 6.7578125 27.270469 6.7578125 27.167969 C 6.7578125 27.124219 6.7877344 26.806406 6.7089844 26.816406 C 6.5914844 26.831406 6.71875 26.674531 6.71875 26.644531 C 6.71875 26.542031 6.6407031 26.504609 6.6269531 26.412109 C 6.6019531 26.319609 6.5471094 26.278672 6.6308594 26.201172 C 6.6396094 26.186172 6.6702344 26.180625 6.7089844 26.171875 L 6.7089844 26.078125 C 6.7089844 26.039375 6.7444531 26.006953 6.7832031 26.001953 L 6.8320312 25.992188 C 6.7682813 25.923437 6.7033594 25.834453 6.6933594 25.751953 C 6.6846094 25.683203 6.7469531 25.609609 6.7519531 25.537109 C 6.7519531 25.473359 6.7578125 25.410547 6.7578125 25.341797 C 6.7478125 25.318047 6.7480469 25.283672 6.7480469 25.263672 C 6.7480469 25.243672 6.7519531 25.238359 6.7519531 25.224609 C 6.7469531 25.199609 6.7432813 25.171484 6.7382812 25.146484 C 6.7332813 25.136484 6.7278906 25.130937 6.7128906 25.117188 C 6.6791406 25.082187 6.69 25.057969 6.71875 25.042969 C 6.71375 25.014219 6.7128906 24.984922 6.7128906 24.951172 C 6.7128906 24.907422 6.6014063 24.726875 6.6601562 24.703125 C 6.6901563 24.688125 6.7132813 24.677109 6.7382812 24.662109 C 6.7282813 24.628359 6.7241406 24.600703 6.7441406 24.595703 C 6.8653906 24.546953 6.8751562 24.491719 6.9726562 24.417969 C 6.9976562 24.402969 7.005625 24.390859 7.015625 24.380859 C 7.010625 24.355859 6.9924219 24.320469 6.9824219 24.261719 C 6.9824219 24.251719 6.9971094 24.244375 7.0058594 24.234375 L 7.0058594 24.228516 C 7.0058594 24.218516 7.0221094 24.213125 7.0371094 24.203125 C 7.0421094 24.179375 7.0357031 24.145937 7.0644531 24.117188 L 7.0957031 24.101562 C 7.1107031 24.091562 7.1435156 24.077031 7.1972656 24.082031 C 7.2210156 24.087031 7.2505469 24.091328 7.2792969 24.111328 C 7.3142969 24.140078 7.3055469 24.175469 7.3105469 24.199219 C 7.3155469 24.204219 7.3183594 24.207891 7.3183594 24.212891 C 7.3183594 24.217891 7.323125 24.21875 7.328125 24.21875 C 7.343125 24.23375 7.3691406 24.244063 7.3691406 24.257812 C 7.3591406 24.326562 7.328125 24.355859 7.328125 24.380859 C 7.338125 24.395859 7.3482815 24.404062 7.3632812 24.414062 C 7.4607813 24.487813 7.4714063 24.531328 7.5976562 24.580078 C 7.6126562 24.585078 7.6115625 24.610781 7.6015625 24.644531 C 7.6215625 24.659531 7.6517969 24.671641 7.6855469 24.681641 C 7.7442969 24.701641 7.6367187 24.891797 7.6367188 24.935547 C 7.6367188 24.965547 7.6358594 24.995547 7.6308594 25.029297 C 7.6608594 25.044297 7.6767188 25.062814 7.6367188 25.101562 C 7.6229687 25.116563 7.6124219 25.127969 7.6074219 25.136719 C 7.6074219 25.151719 7.6026562 25.170703 7.5976562 25.189453 C 7.5976562 25.199453 7.6015625 25.220391 7.6015625 25.244141 C 7.6065625 25.274141 7.6067969 25.313047 7.5917969 25.341797 C 7.5917969 25.405547 7.5926563 25.464687 7.5976562 25.523438 C 7.6026562 25.600938 7.6603906 25.668437 7.6503906 25.742188 C 7.6503906 25.780938 7.6265625 25.825391 7.6015625 25.869141 L 10.068359 25.273438 L 10.082031 25.269531 C 10.102031 25.269531 10.113281 25.259141 10.113281 25.244141 L 10.117188 25.171875 L 10.117188 24.609375 C 10.117188 24.428125 10.068203 24.395 10.126953 24.21875 C 10.160703 24.11125 10.322266 24.130938 10.322266 24.023438 L 10.322266 23.837891 C 10.322266 23.760391 10.390625 23.721328 10.390625 23.642578 L 10.390625 23.539062 C 10.390625 23.426564 10.468516 22.827969 10.322266 22.792969 C 10.273516 22.690469 10.122422 22.451094 10.263672 22.402344 C 10.346172 22.377344 10.360315 22.314609 10.414062 22.255859 C 10.496564 22.225859 10.527344 22.143203 10.527344 22.064453 L 10.527344 21.265625 C 10.537344 20.044375 10.537969 20.522891 10.542969 19.306641 C 10.547969 18.921641 10.547031 18.529531 10.550781 18.144531 L 10.550781 18.070312 C 10.550781 17.996562 10.478516 18.008047 10.478516 17.935547 C 10.443516 17.871797 10.454219 17.846719 10.386719 17.792969 C 10.274219 17.695469 10.313047 17.715391 10.341797 17.587891 C 10.356797 17.510391 10.3275 17.475703 10.3125 17.408203 C 10.3025 17.359453 10.376953 17.300078 10.376953 17.236328 C 10.376953 17.167578 10.381563 17.095234 10.351562 17.021484 C 10.327815 16.972734 10.351172 16.890625 10.263672 16.890625 C 10.234922 16.875625 10.205391 16.895859 10.181641 16.880859 C 10.136641 16.855859 10.135859 16.772266 10.130859 16.728516 C 10.122109 16.644766 10.117109 16.639766 10.068359 16.572266 C 10.024609 16.513516 10.116641 16.430625 10.150391 16.390625 C 10.209141 16.336875 10.263203 16.269766 10.345703 16.259766 C 10.399453 16.239766 10.501953 16.274531 10.501953 16.175781 C 10.536953 16.088281 10.498047 15.922578 10.498047 15.830078 C 10.494297 15.698828 10.565703 15.629219 10.595703 15.511719 C 10.614453 15.424219 10.615234 15.317109 10.615234 15.224609 C 10.615234 14.960859 10.630078 14.735859 10.517578 14.505859 C 10.483828 14.438359 10.337031 14.190625 10.488281 14.140625 C 10.527031 14.111875 10.600391 14.106797 10.650391 14.091797 C 10.707891 14.073047 10.663203 13.886719 10.658203 13.824219 C 10.639453 13.291719 10.721719 12.715078 10.980469 12.236328 C 11.229219 11.772578 11.674375 11.347186 12.109375 11.054688 C 12.289375 10.937186 12.474766 10.829922 12.666016 10.732422 C 12.714766 10.707422 12.76375 10.683203 12.8125 10.658203 C 12.86625 10.629453 12.837344 10.581641 12.871094 10.556641 C 12.924844 10.502891 12.988828 10.464375 13.017578 10.390625 C 13.051328 10.298125 13.076641 10.291797 13.150391 10.248047 C 13.217891 10.224297 13.287109 10.151875 13.287109 10.078125 C 13.287109 10.049375 13.207109 9.9857812 13.193359 9.9570312 C 13.149609 9.8645315 13.248359 9.8777344 13.287109 9.8339844 C 13.310859 9.8102344 13.300781 9.7759375 13.300781 9.7421875 C 13.300781 9.6684375 13.320703 9.6390625 13.345703 9.5703125 C 13.360703 9.5215625 13.349609 9.4578125 13.349609 9.4140625 L 13.349609 8.0566406 C 13.349609 7.9541406 13.193359 7.9538281 13.193359 7.8613281 C 13.193359 7.8025781 13.265781 7.8129687 13.300781 7.7929688 C 13.368281 7.7792187 13.355156 7.7303906 13.378906 7.6816406 C 13.403906 7.6316406 13.432734 7.6223437 13.427734 7.5585938 C 13.422734 7.4948436 13.4275 7.4316406 13.4375 7.3691406 C 13.48625 7.0653906 13.676328 6.8103125 13.955078 6.6640625 C 14.052578 6.6103125 14.267578 6.5625 14.267578 6.5625 C 14.252578 6.48875 14.315936 6.2542969 14.335938 6.1855469 C 14.359685 6.0980469 14.384453 6.010625 14.408203 5.921875 C 14.438203 5.824375 14.497656 5.6295312 14.628906 5.6445312 C 14.761406 5.6295312 14.823516 5.824375 14.853516 5.921875 C 14.872266 6.010625 14.901875 6.0980469 14.921875 6.1855469 C 14.940625 6.2542969 15.009141 6.48875 14.994141 6.5625 C 14.994141 6.5625 15.204141 6.6103125 15.306641 6.6640625 C 15.580391 6.8103125 15.770469 7.0653906 15.824219 7.3691406 C 15.834219 7.4316406 15.840938 7.4948435 15.835938 7.5585938 C 15.830935 7.6223438 15.859065 7.6316406 15.882812 7.6816406 C 15.907815 7.7303906 15.893281 7.7792185 15.957031 7.7929688 C 15.990781 7.8129688 16.068359 7.8025781 16.068359 7.8613281 C 16.068359 7.9538281 15.908203 7.9541406 15.908203 8.0566406 L 15.908203 9.4140625 C 15.908203 9.4578125 15.904219 9.5215625 15.917969 9.5703125 C 15.942969 9.6390625 15.957031 9.6684375 15.957031 9.7421875 C 15.957031 9.7759375 15.951953 9.8102344 15.970703 9.8339844 C 16.010703 9.8777344 16.113359 9.8645315 16.068359 9.9570312 C 16.054609 9.9857813 15.976565 10.049375 15.976562 10.078125 C 15.976562 10.151875 16.044531 10.224297 16.113281 10.248047 C 16.180781 10.291797 16.210391 10.298125 16.244141 10.390625 C 16.269141 10.464375 16.331875 10.502891 16.390625 10.556641 C 16.420625 10.581641 16.390469 10.629453 16.449219 10.658203 C 16.497969 10.683203 16.548047 10.707422 16.591797 10.732422 C 16.783047 10.829922 16.973047 10.937187 17.154297 11.054688 C 17.588047 11.347186 18.0275 11.772578 18.28125 12.236328 C 18.535 12.715078 18.619609 13.291719 18.599609 13.824219 C 18.599609 13.886719 18.549531 14.073047 18.613281 14.091797 C 18.662031 14.106797 18.730391 14.111875 18.775391 14.140625 C 18.926641 14.190625 18.775234 14.438359 18.740234 14.505859 C 18.627734 14.735859 18.648438 14.960859 18.648438 15.224609 C 18.648438 15.317109 18.642969 15.424219 18.667969 15.511719 C 18.691719 15.629219 18.765625 15.698828 18.765625 15.830078 C 18.760625 15.922578 18.724766 16.088281 18.759766 16.175781 C 18.759766 16.274531 18.863359 16.239766 18.912109 16.259766 C 18.994609 16.269766 19.051719 16.336875 19.105469 16.390625 C 19.144219 16.430625 19.238203 16.513516 19.189453 16.572266 C 19.139453 16.639766 19.136953 16.644766 19.126953 16.728516 C 19.126953 16.772266 19.125781 16.855859 19.082031 16.880859 C 19.052031 16.895859 19.023047 16.875625 18.998047 16.890625 C 18.910547 16.890625 18.932109 16.972734 18.912109 17.021484 C 18.882109 17.095234 18.886719 17.167578 18.886719 17.236328 C 18.886719 17.300078 18.955312 17.359453 18.945312 17.408203 C 18.931563 17.475703 18.901875 17.510391 18.921875 17.587891 C 18.950625 17.715391 18.985547 17.695469 18.873047 17.792969 C 18.809297 17.846719 18.814297 17.871797 18.779297 17.935547 C 18.779297 18.008047 18.710937 17.996562 18.710938 18.070312 L 18.710938 18.144531 C 18.710938 18.529531 18.716797 18.921641 18.716797 19.306641 L 18.730469 21.265625 C 18.735469 21.529375 18.734375 21.796953 18.734375 22.064453 C 18.734375 22.143203 18.759297 22.225859 18.841797 22.255859 C 18.900547 22.314609 18.916641 22.377344 18.994141 22.402344 C 19.140391 22.451094 18.985547 22.690469 18.935547 22.792969 C 18.789297 22.827969 18.867187 23.426563 18.867188 23.539062 L 18.867188 23.642578 C 18.867188 23.721328 18.939453 23.760391 18.939453 23.837891 L 18.939453 23.896484 C 18.939453 24.008984 19.101719 23.994062 19.136719 24.101562 C 19.194219 24.277812 19.140625 24.428281 19.140625 24.613281 L 19.140625 25.224609 C 19.140625 25.229609 19.139531 25.234531 19.144531 25.238281 C 19.144531 25.248281 19.149297 25.252813 19.154297 25.257812 L 21.669922 25.869141 C 21.644922 25.825391 21.627188 25.780938 21.617188 25.742188 C 21.612186 25.668437 21.674688 25.600937 21.679688 25.523438 C 21.679688 25.474687 21.680547 25.425703 21.685547 25.376953 C 21.640547 25.341953 21.639531 25.286797 21.644531 25.248047 C 21.649531 25.170547 21.669219 25.160313 21.605469 25.101562 C 21.561719 25.057813 21.596875 25.033281 21.640625 25.019531 C 21.640625 24.989531 21.636719 24.965547 21.636719 24.935547 C 21.640469 24.891797 21.529141 24.701641 21.587891 24.681641 C 21.621641 24.671641 21.649922 24.659531 21.669922 24.644531 C 21.664922 24.610781 21.664687 24.585078 21.679688 24.580078 C 21.800937 24.531328 21.810703 24.487812 21.908203 24.414062 C 21.923203 24.404062 21.939219 24.395859 21.949219 24.380859 C 21.949219 24.355859 21.914297 24.326562 21.904297 24.257812 C 21.909297 24.244063 21.934219 24.23375 21.949219 24.21875 C 21.949219 24.21875 21.953125 24.217891 21.953125 24.212891 C 21.958125 24.207891 21.957891 24.204219 21.962891 24.199219 C 21.967891 24.175469 21.957187 24.140078 21.992188 24.111328 C 22.020937 24.091328 22.056328 24.087031 22.080078 24.082031 C 22.128828 24.077031 22.166641 24.091562 22.181641 24.101562 C 22.201641 24.111562 22.207031 24.117188 22.207031 24.117188 C 22.235781 24.145937 22.231328 24.179375 22.236328 24.203125 C 22.251328 24.213125 22.265625 24.218516 22.265625 24.228516 L 22.265625 24.234375 C 22.275625 24.244375 22.289922 24.251719 22.294922 24.261719 C 22.284922 24.320469 22.260859 24.355859 22.255859 24.380859 C 22.264609 24.390859 22.275781 24.402969 22.300781 24.417969 C 22.398281 24.491719 22.411953 24.546953 22.533203 24.595703 C 22.548203 24.600703 22.543203 24.628359 22.533203 24.662109 C 22.558203 24.677109 22.583281 24.688125 22.613281 24.703125 C 22.672031 24.726875 22.564453 24.907422 22.564453 24.951172 C 22.564453 24.994922 22.558828 25.034453 22.548828 25.064453 C 22.558828 25.078203 22.552969 25.086563 22.542969 25.101562 C 22.527969 25.165312 22.515625 25.230469 22.515625 25.292969 C 22.515625 25.376719 22.520391 25.458359 22.525391 25.537109 C 22.529141 25.609609 22.588125 25.683203 22.578125 25.751953 C 22.574375 25.829453 22.514063 25.911719 22.445312 25.980469 L 22.558594 26.001953 C 22.592344 26.006953 22.621953 26.039375 22.626953 26.078125 L 22.626953 26.207031 L 22.630859 26.207031 C 22.714609 26.284531 22.656719 26.319375 22.636719 26.421875 C 22.617969 26.509375 22.539062 26.547891 22.539062 26.650391 C 22.539062 26.685391 22.671094 26.835313 22.558594 26.820312 C 22.471094 26.815312 22.505859 27.128125 22.505859 27.171875 C 22.505859 27.269375 22.479766 27.285312 22.509766 27.382812 C 22.528516 27.446562 22.586566 27.485937 22.601562 27.554688 C 22.621562 27.623437 22.613281 27.699922 22.613281 27.763672 C 22.613281 27.939922 23.115391 27.952969 23.212891 28.011719 C 23.315391 28.016719 23.174297 28.319687 23.154297 28.398438 C 23.140547 28.462187 23.114063 28.603594 23.070312 28.652344 C 23.026563 28.706094 23.0175 28.793281 22.96875 28.832031 C 22.935 28.862031 22.787109 28.842734 22.787109 28.896484 C 22.787109 28.950234 22.748047 28.993984 22.748047 29.052734 C 22.748047 29.116484 22.762969 29.164609 22.699219 29.193359 C 22.606719 29.247109 22.558594 29.336953 22.558594 29.439453 C 22.558594 29.478203 22.558359 29.516875 22.568359 29.546875 C 22.577109 29.570625 22.617187 29.570703 22.617188 29.595703 C 22.617188 29.649453 22.554688 29.702031 22.554688 29.769531 C 22.554688 29.804531 22.578125 30.1275 22.578125 30.15625 C 22.578125 30.205 22.548828 30.248125 22.548828 30.296875 L 22.548828 30.322266 C 22.548828 30.766016 22.544062 31.801094 22.539062 32.246094 C 22.529062 32.846094 22.528281 32.358984 22.519531 32.958984 L 22.519531 33.275391 C 22.519531 33.290391 22.527969 33.300391 22.542969 33.587891 L 23.814453 33.691406 C 23.804453 33.667656 23.792969 33.646953 23.792969 33.626953 C 23.782969 33.549453 23.846563 33.485703 23.851562 33.408203 C 23.856564 33.324453 23.858281 33.247813 23.863281 33.164062 C 23.863281 33.047813 23.809453 32.949609 23.814453 32.818359 C 23.814453 32.774609 23.706016 32.588203 23.759766 32.564453 C 23.798516 32.554453 23.823047 32.539141 23.841797 32.525391 C 23.836797 32.495391 23.836563 32.470937 23.851562 32.460938 C 23.979063 32.417188 23.989141 32.369531 24.087891 32.300781 C 24.101641 32.285781 24.111094 32.275625 24.121094 32.265625 C 24.121094 32.236875 24.090781 32.207422 24.082031 32.138672 C 24.082031 32.128672 24.106094 32.118359 24.121094 32.099609 C 24.126094 32.099609 24.126953 32.100703 24.126953 32.095703 C 24.131953 32.095703 24.136719 32.090078 24.136719 32.080078 C 24.140469 32.060078 24.135313 32.020938 24.164062 31.992188 C 24.197813 31.977187 24.228203 31.971797 24.251953 31.966797 C 24.305703 31.956797 24.341719 31.978281 24.355469 31.988281 C 24.375469 31.993281 24.380859 32.001953 24.380859 32.001953 C 24.414609 32.030703 24.404065 32.064844 24.414062 32.089844 C 24.429063 32.094844 24.439453 32.099531 24.439453 32.113281 L 24.439453 32.119141 C 24.453203 32.129141 24.461797 32.139531 24.466797 32.144531 C 24.456797 32.208281 24.433594 32.236719 24.433594 32.261719 C 24.438594 32.275469 24.451563 32.285781 24.476562 32.300781 C 24.574063 32.378281 24.579531 32.431719 24.707031 32.480469 C 24.720781 32.485469 24.721641 32.514219 24.712891 32.542969 C 24.731641 32.557969 24.756406 32.573281 24.785156 32.582031 C 24.843906 32.607031 24.736328 32.792031 24.736328 32.832031 C 24.741328 32.968281 24.688359 33.062188 24.693359 33.179688 C 24.693359 33.262188 24.697266 33.339375 24.697266 33.421875 C 24.702266 33.495625 24.764609 33.567969 24.755859 33.636719 C 24.750859 33.675469 24.730781 33.716016 24.707031 33.759766 L 25.005859 33.783203 L 25.015625 34.306641 C 25.029375 34.336641 25.039375 34.370391 25.015625 34.400391 L 25.029297 35.332031 L 26.347656 35.453125 L 26.347656 8.3203125 C 23.926406 4.9715625 19.482656 2.9042969 14.628906 2.9042969 z M 14.609375 7.5878906 C 14.456875 7.5878906 14.335935 7.7580469 14.335938 7.9042969 L 14.335938 9.4726562 C 14.335938 9.4826562 14.340859 9.4921875 14.349609 9.4921875 L 14.359375 9.4921875 C 14.359375 9.4921875 14.360234 9.4980469 14.365234 9.4980469 L 14.886719 9.4980469 C 14.896719 9.4980469 14.908203 9.4865625 14.908203 9.4765625 L 14.908203 7.9101562 C 14.908203 7.7789062 14.809375 7.6276563 14.671875 7.5976562 C 14.653125 7.5926563 14.633125 7.5878906 14.609375 7.5878906 z M 13.880859 7.7578125 C 13.769609 7.7778125 13.672344 7.8663281 13.652344 8.0175781 L 13.652344 9.609375 C 13.652344 9.623125 13.661875 9.6280469 13.671875 9.6230469 C 13.675625 9.6280469 13.680547 9.6339062 13.685547 9.6289062 L 14.105469 9.546875 C 14.120469 9.546875 14.126953 9.5314844 14.126953 9.5214844 L 14.126953 8.0234375 C 14.126953 7.8959375 14.029297 7.7728125 13.935547 7.7578125 C 13.916797 7.7528125 13.895859 7.7528125 13.880859 7.7578125 z M 15.351562 7.7578125 C 15.230315 7.7340625 15.113281 7.8763281 15.113281 8.0175781 L 15.113281 9.515625 C 15.113281 9.530625 15.122109 9.5410156 15.130859 9.5410156 L 15.146484 9.546875 L 15.560547 9.6289062 C 15.570547 9.6339066 15.582031 9.6232815 15.582031 9.6132812 L 15.582031 8.0234375 C 15.562031 7.8821875 15.474688 7.7786719 15.367188 7.7636719 C 15.362185 7.7586719 15.361328 7.7628125 15.361328 7.7578125 L 15.351562 7.7578125 z M 14.619141 15.693359 C 14.087891 15.693359 13.701172 16.191797 13.701172 16.685547 L 13.701172 21.880859 C 13.701172 21.914609 13.725859 21.939219 13.755859 21.949219 L 13.775391 21.949219 L 15.488281 21.949219 C 15.527031 21.949219 15.550781 21.918516 15.550781 21.884766 L 15.550781 16.689453 C 15.550781 16.254453 15.248359 15.819297 14.818359 15.716797 C 14.755859 15.701797 14.687891 15.693359 14.619141 15.693359 z M 12.099609 16.167969 C 11.733359 16.167969 11.435547 16.557266 11.435547 17.041016 L 11.435547 22.074219 C 11.435547 22.104219 11.459375 22.127813 11.484375 22.132812 C 11.493125 22.137814 11.503672 22.138672 11.513672 22.138672 L 12.626953 22.005859 C 12.660703 22.002109 12.685547 21.973438 12.685547 21.929688 L 12.685547 17.046875 C 12.685547 16.616875 12.524219 16.259297 12.230469 16.185547 C 12.186719 16.171797 12.143359 16.167969 12.099609 16.167969 z M 17.144531 16.167969 C 16.783281 16.167969 16.568359 16.557266 16.568359 17.041016 L 16.568359 21.923828 C 16.568359 21.967578 16.595859 21.996953 16.630859 22.001953 L 16.636719 22.001953 C 16.636719 22.001953 16.639531 22.002109 16.644531 22.005859 L 17.757812 22.138672 C 17.791562 22.143672 17.822266 22.112969 17.822266 22.074219 L 17.822266 17.046875 C 17.822266 16.616875 17.586797 16.259297 17.279297 16.185547 C 17.235547 16.171797 17.193281 16.167969 17.144531 16.167969 z M 14.833984 24.365234 C 14.780234 24.370234 14.764219 24.385625 14.730469 24.390625 C 14.701719 24.400625 14.628906 24.443359 14.628906 24.443359 C 14.628906 24.443359 14.590391 24.456797 14.556641 24.466797 C 14.521641 24.476797 14.432969 24.536641 14.417969 24.556641 C 14.407969 24.570391 14.349609 24.638672 14.349609 24.638672 L 14.292969 24.648438 C 14.247969 24.653438 14.175781 24.697266 14.175781 24.697266 C 14.117031 24.692266 14.067734 24.730469 14.052734 24.730469 C 14.037734 24.730469 13.974609 24.765625 13.974609 24.765625 C 13.974609 24.765625 13.944684 24.769609 13.867188 24.818359 C 13.788436 24.863359 13.667344 25.015313 13.652344 25.039062 C 13.642344 25.064062 13.574219 25.204609 13.574219 25.224609 C 13.574219 25.243359 13.560547 25.296875 13.560547 25.296875 C 13.560547 25.296875 13.544064 25.327813 13.539062 25.351562 C 13.524064 25.371562 13.507186 25.425469 13.492188 25.449219 C 13.477187 25.474219 13.475781 25.512578 13.457031 25.517578 C 13.437031 25.527578 13.409531 25.561172 13.394531 25.576172 C 13.374531 25.586172 13.340314 25.630313 13.320312 25.664062 C 13.301565 25.694063 13.280625 25.726953 13.265625 25.751953 C 13.251875 25.775703 13.248047 25.859375 13.248047 25.859375 C 13.248047 25.859375 13.236797 25.893359 13.216797 25.912109 C 13.206797 25.927109 13.203125 25.971094 13.203125 25.996094 L 13.193359 26.136719 C 13.193359 26.136719 13.194453 26.195938 13.189453 26.210938 C 13.189453 26.210938 13.189687 26.313906 13.179688 26.347656 C 13.174685 26.372656 13.193281 26.513203 13.207031 26.533203 C 13.222031 26.556953 13.286875 26.606094 13.296875 26.621094 C 13.310625 26.631094 13.373436 26.679453 13.398438 26.689453 C 13.417185 26.703203 13.442031 26.728516 13.457031 26.728516 C 13.470781 26.728516 13.481328 26.728281 13.486328 26.738281 C 13.501328 26.757031 13.511641 26.753047 13.525391 26.748047 C 13.545391 26.748047 13.554609 26.772344 13.568359 26.777344 C 13.583359 26.782344 13.58375 26.801406 13.59375 26.816406 C 13.59875 26.836406 13.609141 26.880391 13.619141 26.900391 C 13.619141 26.919141 13.647344 26.996875 13.652344 27.015625 C 13.662344 27.035625 13.666797 27.113436 13.685547 27.148438 C 13.710547 27.187187 13.755547 27.202266 13.779297 27.197266 C 13.799297 27.192266 13.828125 27.167969 13.828125 27.167969 L 13.824219 27.251953 C 13.824219 27.251953 13.827031 27.364687 13.832031 27.398438 C 13.832031 27.437188 13.876953 27.578125 13.876953 27.578125 C 13.876953 27.578125 13.890625 27.611953 13.890625 27.626953 C 13.890625 27.650703 13.896484 27.695312 13.896484 27.695312 C 13.896484 27.695312 13.857031 27.705703 13.832031 27.720703 C 13.803281 27.739453 13.725781 27.773125 13.707031 27.796875 C 13.682031 27.821875 13.622031 27.94 13.613281 27.96875 C 13.603281 27.9975 13.540625 28.109531 13.515625 28.144531 C 13.496875 28.178281 13.442109 28.270781 13.412109 28.300781 C 13.378359 28.339531 13.290703 28.417031 13.251953 28.457031 C 13.206953 28.505781 13.071719 28.618594 13.042969 28.652344 C 13.007969 28.686094 12.978516 28.730469 12.978516 28.730469 C 12.978516 28.730469 12.964219 28.739141 12.949219 28.744141 C 12.935469 28.754141 12.881875 28.784685 12.828125 28.804688 C 12.774375 28.833437 12.730391 28.858047 12.681641 28.873047 C 12.627891 28.896797 12.558828 28.925781 12.548828 28.925781 C 12.533828 28.934531 12.484453 28.934453 12.470703 28.939453 C 12.450703 28.944453 12.435547 28.949219 12.435547 28.949219 C 12.435547 28.949219 12.396953 28.964844 12.376953 28.964844 C 12.363203 28.964844 12.328203 28.980469 12.314453 28.980469 C 12.299453 28.980469 12.255469 28.993047 12.230469 28.998047 C 12.206719 28.998047 12.173047 29.013672 12.154297 29.013672 C 12.134297 29.013672 12.089453 29.037109 12.064453 29.037109 C 12.040703 29.037109 12.020859 29.0525 12.005859 29.0625 C 11.992109 29.0675 11.949688 29.082891 11.929688 29.087891 C 11.909686 29.096641 11.849684 29.106094 11.835938 29.121094 C 11.820937 29.131094 11.797578 29.149297 11.767578 29.154297 C 11.743828 29.164297 11.713125 29.193125 11.703125 29.203125 C 11.689375 29.208125 11.675391 29.21875 11.650391 29.21875 C 11.631641 29.21375 11.59125 29.21875 11.5625 29.21875 C 11.53375 29.21875 11.430625 29.272969 11.390625 29.292969 C 11.356875 29.311719 11.294141 29.384453 11.275391 29.408203 C 11.265391 29.438203 11.195625 29.530469 11.171875 29.574219 C 11.151875 29.612969 11.1275 29.667031 11.09375 29.707031 C 11.065 29.745781 11.039297 29.809375 11.029297 29.828125 C 11.024297 29.848125 10.981328 29.956172 10.986328 29.951172 C 10.976328 29.971172 10.931641 30.082031 10.931641 30.082031 L 10.869141 30.146484 C 10.860391 30.166484 10.810391 30.307031 10.806641 30.332031 C 10.801641 30.350781 10.765703 30.414609 10.751953 30.443359 C 10.736953 30.473359 10.673828 30.605469 10.673828 30.605469 C 10.673828 30.605469 10.668203 30.650938 10.658203 30.679688 C 10.649453 30.703437 10.625469 30.785469 10.605469 30.824219 C 10.591719 30.862969 10.582031 31.064453 10.582031 31.064453 C 10.582031 31.064453 10.565781 31.094064 10.550781 31.132812 C 10.537031 31.167813 10.517578 31.275391 10.517578 31.275391 C 10.517578 31.275391 10.498125 31.298359 10.484375 31.318359 C 10.464375 31.342109 10.434922 31.396875 10.419922 31.421875 C 10.399922 31.445625 10.376565 31.475781 10.351562 31.519531 C 10.322814 31.563281 10.307969 31.577578 10.292969 31.611328 C 10.279219 31.640078 10.234609 31.703516 10.224609 31.728516 C 10.214609 31.757266 10.17125 31.821719 10.15625 31.855469 C 10.13625 31.885469 10.127422 31.933906 10.107422 31.972656 C 10.087422 32.011406 10.033281 32.099063 10.019531 32.132812 C 10.004531 32.161563 9.999375 32.216094 9.984375 32.246094 C 9.970625 32.274844 9.9229686 32.407891 9.9179688 32.431641 C 9.9129684 32.456641 9.8478906 32.591953 9.8378906 32.626953 C 9.8278906 32.660703 9.7940625 32.748203 9.7890625 32.783203 C 9.7740625 32.816953 9.7266406 32.914453 9.7128906 32.939453 C 9.6978906 32.963203 9.6671875 33.022109 9.6484375 33.037109 C 9.6384375 33.060859 9.5695316 33.130313 9.5507812 33.164062 C 9.5357814 33.189062 9.4717969 33.281016 9.4667969 33.291016 C 9.4617969 33.306016 9.4240625 33.363672 9.4140625 33.388672 C 9.4090625 33.412422 9.3546875 33.495781 9.3359375 33.519531 C 9.3159375 33.544531 9.2828125 33.642891 9.2578125 33.681641 C 9.2390625 33.725391 9.1894531 33.858047 9.1894531 33.873047 C 9.1894531 33.886797 9.1398438 33.979297 9.1210938 33.998047 C 9.1060937 34.013047 9.0716406 34.130547 9.0566406 34.154297 C 9.0466406 34.184297 8.9991406 34.315938 8.9941406 34.335938 C 8.9853906 34.364688 8.9103906 34.551328 8.9003906 34.580078 C 8.8903906 34.610078 8.8235936 34.805 8.8085938 34.84375 C 8.7935937 34.8825 8.7211719 35.064531 8.7011719 35.113281 C 8.6761719 35.162031 8.5836719 35.345547 8.5449219 35.404297 C 8.5011719 35.453047 8.3984375 35.748047 8.3984375 35.748047 L 8.3789062 35.814453 C 8.3789062 35.814453 8.3305469 35.874531 8.3105469 35.894531 C 8.2967969 35.909531 8.2367969 36.019064 8.2167969 36.039062 C 8.2067969 36.059064 8.159375 36.152031 8.140625 36.175781 C 8.120625 36.200781 8.1054686 36.234375 8.1054688 36.234375 C 8.1054688 36.234375 8.0970313 36.234766 8.0820312 36.259766 C 8.0620313 36.288516 8.0479686 36.299219 8.0429688 36.324219 C 8.0329688 36.337969 8.0175781 36.380859 8.0175781 36.380859 C 8.0175781 36.380859 7.99375 36.421719 7.96875 36.480469 C 7.96375 36.494219 7.9592188 36.519297 7.9492188 36.529297 C 7.9442188 36.543047 7.9307813 36.578047 7.9257812 36.591797 C 7.9007813 36.645547 7.8808594 36.670547 7.8808594 36.685547 C 7.8658594 36.729297 7.8417969 36.748047 7.8417969 36.748047 C 7.8417969 36.748047 7.8071094 36.723281 7.7871094 36.738281 C 7.7683594 36.752031 7.7539064 36.728516 7.7539062 36.728516 L 7.7304688 36.728516 L 7.671875 36.728516 C 7.646875 36.723516 7.5970314 36.729375 7.5820312 36.734375 C 7.5632812 36.739375 7.5292969 36.773437 7.5292969 36.773438 C 7.5292969 36.773438 7.4513281 36.806719 7.3925781 36.792969 C 7.3288281 36.782969 7.2954688 36.772578 7.2617188 36.767578 C 7.2267187 36.767578 7.1542969 36.787109 7.1542969 36.787109 C 7.1542969 36.787109 7.1192187 36.817031 7.1054688 36.832031 C 7.0904687 36.847031 7.065625 36.88 7.046875 36.875 C 7.026875 36.875 6.9241406 36.864141 6.9003906 36.869141 C 6.8703906 36.879141 6.8167186 36.904297 6.7929688 36.904297 C 6.7729687 36.904297 6.566875 36.929219 6.546875 36.949219 C 6.528125 36.972969 6.4942187 37.035781 6.4804688 37.050781 C 6.4704688 37.069531 6.4698437 37.084844 6.4648438 37.089844 C 6.4160937 37.099844 5.17125 37.203125 5.15625 37.203125 C 5.13625 37.203125 5.1171875 37.242187 5.1171875 37.242188 L 5.1171875 37.314453 C 5.1171875 37.338203 5.1269531 38.554688 5.1269531 38.554688 L 2.9042969 38.587891 L 2.9042969 45.058594 L 26.347656 45.058594 L 26.347656 38.261719 C 24.877656 38.247969 24.175781 38.226562 24.175781 38.226562 C 24.170781 38.211562 24.140625 38.193359 24.140625 38.193359 C 24.140625 38.193359 24.121094 38.124375 24.121094 38.109375 C 24.121094 38.095625 24.095703 38.056719 24.095703 38.042969 C 24.095703 38.027969 24.071641 37.953437 24.056641 37.929688 C 24.041641 37.909688 24.034531 37.861797 24.019531 37.841797 C 24.004531 37.823047 23.969219 37.759141 23.949219 37.744141 C 23.930469 37.720391 23.877422 37.695312 23.857422 37.695312 C 23.832422 37.695312 23.788516 37.690391 23.759766 37.681641 C 23.734766 37.676641 23.496562 37.710938 23.476562 37.710938 C 23.457812 37.710938 23.432969 37.676016 23.417969 37.666016 C 23.404219 37.646016 23.369141 37.623047 23.369141 37.623047 C 23.369141 37.623047 23.296719 37.601563 23.261719 37.601562 C 23.222969 37.601562 23.193516 37.618047 23.134766 37.623047 C 23.071016 37.631797 22.994141 37.601563 22.994141 37.601562 C 22.994141 37.601562 22.958203 37.573359 22.939453 37.568359 C 22.919453 37.563359 22.871562 37.553594 22.851562 37.558594 C 22.832812 37.563594 22.792969 37.558594 22.792969 37.558594 L 22.769531 37.533203 C 22.769531 37.533203 22.753125 37.484453 22.734375 37.470703 C 22.714375 37.455703 22.685547 37.382812 22.685547 37.382812 C 22.685547 37.382812 22.676016 37.310156 22.666016 37.285156 C 22.661016 37.261406 22.635703 37.172187 22.626953 37.148438 C 22.621953 37.133437 22.618281 37.069766 22.613281 37.041016 C 22.613281 37.006016 22.587891 36.90375 22.587891 36.875 C 22.577891 36.84125 22.548203 36.761953 22.533203 36.751953 L 22.466797 36.685547 L 22.441406 36.621094 C 22.441406 36.621094 22.408047 36.546953 22.373047 36.533203 C 22.344297 36.518203 22.236328 36.400391 22.236328 36.400391 C 22.236328 36.400391 22.221797 36.324453 22.216797 36.314453 C 22.213047 36.299453 22.192734 36.200781 22.177734 36.175781 C 22.167734 36.152031 22.147813 36.083359 22.132812 36.068359 C 22.122813 36.049609 22.109844 36.006563 22.089844 35.976562 C 22.069844 35.947813 22.05125 35.883125 22.03125 35.859375 C 22.01125 35.839375 21.977891 35.751563 21.962891 35.726562 C 21.952891 35.706564 21.885 35.556719 21.875 35.542969 C 21.865 35.522969 21.831406 35.394609 21.816406 35.380859 C 21.801406 35.360859 21.752891 35.243359 21.744141 35.224609 C 21.729141 35.204609 21.660391 35.009687 21.650391 34.960938 C 21.640391 34.912188 21.5775 34.800391 21.5625 34.775391 C 21.5475 34.746641 21.445156 34.551875 21.347656 34.453125 C 21.250156 34.346875 21.230469 34.300781 21.230469 34.300781 C 21.230469 34.277031 21.210313 34.237891 21.195312 34.212891 C 21.175313 34.189141 21.156953 34.145078 21.126953 34.111328 C 21.098203 34.077578 21.073438 34.013281 21.054688 33.988281 C 21.034688 33.954531 20.986875 33.877031 20.953125 33.832031 C 20.918125 33.788281 20.854219 33.691953 20.824219 33.658203 C 20.800469 33.628203 20.775703 33.539609 20.751953 33.505859 C 20.731953 33.470859 20.702109 33.408281 20.693359 33.363281 C 20.678359 33.324531 20.630469 33.217578 20.605469 33.173828 C 20.586719 33.130078 20.547109 33.071641 20.537109 33.056641 C 20.527109 33.037891 20.484531 32.978906 20.425781 32.910156 C 20.357031 32.841406 20.332969 32.783125 20.292969 32.734375 C 20.259219 32.689375 20.224609 32.662109 20.224609 32.662109 C 20.224609 32.662109 20.194453 32.592109 20.189453 32.568359 C 20.180703 32.548359 20.136172 32.446562 20.107422 32.382812 C 20.073672 32.315314 20.025 32.215391 20 32.181641 C 19.975 32.147891 19.940625 32.114453 19.921875 32.095703 C 19.901875 32.080703 19.853516 31.992188 19.853516 31.992188 C 19.853516 31.992188 19.794922 31.904375 19.794922 31.890625 C 19.784922 31.880625 19.696875 31.767266 19.671875 31.728516 C 19.643125 31.693516 19.541484 31.536563 19.521484 31.507812 C 19.506484 31.479063 19.462344 31.435625 19.433594 31.421875 C 19.399844 31.411875 19.336406 31.347891 19.316406 31.337891 C 19.301406 31.332891 19.256953 31.279609 19.251953 31.255859 C 19.246953 31.235859 19.232891 31.162578 19.212891 31.142578 C 19.192891 31.122578 19.179922 31.054062 19.169922 31.039062 C 19.159922 31.019063 19.125469 30.976016 19.105469 30.947266 C 19.090469 30.917266 19.071641 30.859453 19.056641 30.814453 C 19.036641 30.775703 18.989453 30.679609 18.970703 30.630859 C 18.945703 30.582109 18.910703 30.542031 18.876953 30.488281 C 18.836953 30.434531 18.783203 30.321875 18.783203 30.296875 C 18.774453 30.273125 18.759141 30.215312 18.744141 30.195312 C 18.734141 30.176562 18.661953 30.117656 18.626953 30.097656 C 18.598203 30.073906 18.564688 30.039375 18.554688 30.015625 C 18.544688 29.990625 18.555547 29.961641 18.560547 29.931641 C 18.569297 29.902891 18.559687 29.829531 18.554688 29.800781 C 18.544688 29.770781 18.486563 29.682109 18.476562 29.662109 C 18.466562 29.643359 18.418047 29.575313 18.404297 29.570312 C 18.384297 29.560312 18.359609 29.531484 18.349609 29.521484 C 18.334609 29.506484 18.310625 29.487656 18.296875 29.472656 C 18.291875 29.457656 18.222891 29.403281 18.212891 29.394531 C 18.199141 29.379531 18.124609 29.320547 18.099609 29.310547 C 18.075859 29.296797 18.032813 29.277344 18.007812 29.277344 C 17.989062 29.277344 17.943359 29.296875 17.943359 29.296875 C 17.943359 29.296875 17.919531 29.271953 17.894531 29.251953 C 17.870781 29.238203 17.812109 29.203125 17.787109 29.203125 C 17.768359 29.198125 17.705391 29.164297 17.681641 29.154297 C 17.661641 29.149297 17.554688 29.130859 17.554688 29.130859 L 17.460938 29.101562 C 17.460938 29.101562 17.373125 29.062734 17.359375 29.052734 C 17.344375 29.042734 17.251953 29.029297 17.251953 29.029297 C 17.251953 29.029297 17.182969 29.003047 17.167969 28.998047 C 17.159219 28.993047 17.110937 28.988281 17.085938 28.988281 C 17.065938 28.979531 16.949687 28.955078 16.929688 28.955078 C 16.914687 28.955078 16.875 28.925781 16.875 28.925781 C 16.85 28.895781 16.744609 28.837109 16.724609 28.818359 C 16.704609 28.798359 16.611641 28.700625 16.587891 28.671875 C 16.562891 28.651875 16.405703 28.524609 16.376953 28.505859 C 16.341953 28.480859 16.181719 28.360703 16.167969 28.345703 C 16.147969 28.335703 16.089219 28.211719 16.074219 28.167969 C 16.065469 28.124219 15.970859 27.982812 15.912109 27.914062 C 15.859609 27.845313 15.742185 27.783203 15.742188 27.783203 L 15.712891 27.773438 L 15.699219 27.734375 L 15.703125 27.591797 C 15.738125 27.538047 15.772109 27.406641 15.787109 27.337891 C 15.792109 27.269141 15.800781 27.191953 15.800781 27.158203 C 15.800781 27.128203 15.805703 27.104844 15.814453 27.089844 C 15.829453 27.079844 15.849609 27.089844 15.849609 27.089844 C 15.849609 27.089844 15.859453 27.099531 15.908203 27.113281 C 15.956953 27.128281 15.986719 27.105313 16.011719 27.070312 C 16.035469 27.041563 16.029297 27.005547 16.029297 26.966797 C 16.029297 26.928047 16.054453 26.875469 16.064453 26.855469 C 16.083203 26.826719 16.152109 26.777815 16.162109 26.757812 C 16.172109 26.739062 16.215625 26.727891 16.234375 26.712891 C 16.254375 26.697891 16.289062 26.685547 16.289062 26.685547 C 16.289062 26.685547 16.304219 26.655469 16.324219 26.636719 C 16.342969 26.621719 16.351562 26.610781 16.351562 26.582031 C 16.351562 26.557031 16.352187 26.513906 16.367188 26.503906 C 16.380937 26.485156 16.390625 26.449766 16.390625 26.416016 C 16.390625 26.391016 16.411875 26.357969 16.421875 26.324219 C 16.426875 26.294219 16.445078 26.264375 16.455078 26.234375 C 16.465078 26.200625 16.465937 26.152578 16.460938 26.142578 C 16.455938 26.132578 16.449219 26.083203 16.449219 26.064453 C 16.449219 26.044453 16.434531 26.006094 16.425781 25.996094 C 16.420781 25.981094 16.416875 25.932109 16.421875 25.912109 C 16.426875 25.888359 16.406484 25.863359 16.396484 25.849609 C 16.391484 25.839609 16.390859 25.810234 16.380859 25.771484 C 16.372109 25.737734 16.361562 25.753281 16.351562 25.738281 C 16.336562 25.718281 16.327109 25.659609 16.318359 25.630859 C 16.308359 25.597109 16.293203 25.551328 16.283203 25.517578 C 16.274453 25.493828 16.224922 25.434063 16.201172 25.414062 C 16.172422 25.394063 16.162109 25.390625 16.162109 25.390625 C 16.162109 25.390625 16.163203 25.258359 16.158203 25.224609 C 16.158203 25.184609 16.147578 25.122422 16.142578 25.107422 C 16.132578 25.087422 16.118984 25.039375 16.083984 25.015625 C 16.050234 24.990625 15.967109 24.918203 15.943359 24.908203 C 15.913359 24.888203 15.855936 24.838359 15.835938 24.818359 C 15.820937 24.799609 15.760937 24.741562 15.742188 24.726562 C 15.722186 24.707812 15.682969 24.673047 15.667969 24.654297 C 15.657969 24.639297 15.619375 24.619219 15.609375 24.605469 C 15.595625 24.595469 15.527814 24.556016 15.507812 24.541016 C 15.489065 24.526016 15.448434 24.498281 15.429688 24.488281 C 15.414687 24.483281 15.322734 24.444453 15.302734 24.439453 C 15.287734 24.434453 15.215314 24.419063 15.195312 24.414062 C 15.171565 24.404062 15.064141 24.370234 15.025391 24.365234 C 14.995391 24.365234 14.892734 24.360234 14.833984 24.365234 z M 17.837891 32.474609 L 17.904297 32.480469 C 17.904297 32.480469 17.974297 32.559531 17.998047 32.613281 C 18.013047 32.667031 18.086719 32.784297 18.105469 32.841797 C 18.125469 32.895547 18.393125 33.335469 18.421875 33.417969 C 18.456875 33.501719 18.754453 34.058436 18.783203 34.117188 C 18.818203 34.180937 18.969062 34.4875 19.007812 34.53125 C 19.051562 34.58 19.262891 34.945781 19.306641 35.019531 C 19.355391 35.092031 19.613672 35.469141 19.638672 35.494141 C 19.662422 35.517891 19.834141 35.801328 19.869141 35.830078 C 19.897891 35.863828 20.097656 36.136719 20.097656 36.136719 C 20.097656 36.136719 20.200078 36.260625 20.205078 36.328125 C 20.215078 36.396875 20.327422 36.508047 20.419922 36.654297 C 20.512422 36.800547 20.630859 36.908203 20.630859 36.908203 C 20.630859 36.908203 20.664375 36.923906 20.703125 36.972656 C 20.743125 37.031406 20.786328 37.123203 20.830078 37.158203 C 20.863828 37.196953 20.863281 37.212891 20.863281 37.212891 C 20.863281 37.212891 20.863594 37.236719 20.839844 37.261719 C 20.819844 37.290469 20.878906 37.349609 20.878906 37.349609 L 20.917969 37.435547 C 20.917969 37.435547 20.943047 37.539375 20.966797 37.578125 C 20.991797 37.608125 21.025391 37.753906 21.025391 37.753906 C 21.025391 37.753906 20.980625 37.7925 20.921875 37.8125 C 20.868125 37.8325 20.878906 37.867188 20.878906 37.867188 C 20.878906 37.867188 20.781172 37.876953 20.732422 37.876953 C 20.683672 37.876953 20.630859 37.894531 20.630859 37.894531 L 20.523438 37.894531 C 20.489687 37.894531 20.439453 37.929688 20.439453 37.929688 L 20.302734 37.929688 L 20.171875 37.925781 C 20.171875 37.925781 20.069141 37.851875 20.025391 37.828125 C 19.990391 37.803125 19.881875 37.743594 19.828125 37.714844 C 19.779375 37.684844 19.667031 37.621562 19.613281 37.601562 C 19.564531 37.576563 19.483203 37.554063 19.439453 37.539062 C 19.400703 37.529063 19.307187 37.495859 19.273438 37.505859 C 19.239687 37.515859 19.155938 37.494141 19.117188 37.494141 C 19.073436 37.494141 18.877891 37.539063 18.837891 37.539062 C 18.799141 37.539062 18.701563 37.529609 18.632812 37.505859 C 18.565312 37.485859 18.360391 37.422969 18.306641 37.417969 C 18.252891 37.412969 18.212891 37.435547 18.212891 37.435547 C 18.212891 37.435547 18.173828 37.315938 18.173828 37.242188 C 18.173828 37.168436 18.145 37.074141 18.125 37.025391 C 18.105 36.981641 18.050859 36.917891 18.037109 36.869141 C 18.027109 36.820391 17.964219 36.713047 17.949219 36.654297 C 17.935469 36.595547 17.876328 36.499297 17.861328 36.435547 C 17.851328 36.378047 17.743359 36.166953 17.724609 36.126953 C 17.704609 36.083203 17.587578 35.908906 17.548828 35.878906 C 17.505078 35.845156 17.34375 35.738281 17.34375 35.738281 L 17.333984 35.683594 C 17.333984 35.683594 17.328125 35.567188 17.328125 35.523438 C 17.328125 35.479686 17.310781 35.448047 17.300781 35.404297 C 17.280781 35.360547 17.265937 35.272813 17.242188 35.257812 C 17.217188 35.247813 17.220703 35.230469 17.220703 35.230469 L 17.255859 35.150391 C 17.255859 35.150391 17.300547 35.083438 17.310547 35.054688 C 17.329297 35.020938 17.327891 34.961719 17.337891 34.917969 C 17.352891 34.872969 17.363281 34.839531 17.363281 34.800781 C 17.363281 34.765781 17.382813 34.701875 17.382812 34.671875 C 17.382812 34.638125 17.411875 34.473203 17.421875 34.439453 C 17.425625 34.404453 17.450859 34.345781 17.474609 34.300781 C 17.499609 34.257031 17.505859 34.229297 17.505859 34.185547 C 17.505859 34.145547 17.494766 34.090703 17.509766 34.033203 C 17.519766 33.969453 17.542969 33.890313 17.542969 33.851562 C 17.542969 33.802813 17.581797 33.705781 17.591797 33.675781 C 17.606797 33.647031 17.626953 33.550469 17.626953 33.511719 C 17.626953 33.471719 17.657109 33.364688 17.662109 33.335938 C 17.667109 33.302188 17.689453 33.163203 17.689453 33.095703 C 17.689453 33.026953 17.738047 32.910078 17.748047 32.861328 C 17.753047 32.812578 17.796875 32.682109 17.796875 32.662109 C 17.796875 32.637109 17.817266 32.578437 17.822266 32.554688 C 17.827266 32.534686 17.837891 32.474609 17.837891 32.474609 z M 11.820312 32.900391 C 11.820312 32.900391 11.826172 32.94 11.826172 32.96875 C 11.826172 32.9975 11.830312 33.110313 11.820312 33.164062 C 11.815316 33.217813 11.821172 33.334063 11.826172 33.382812 C 11.836172 33.431562 11.864766 33.603984 11.884766 33.740234 C 11.903516 33.886484 12.01125 34.198203 12.03125 34.251953 C 12.05125 34.305703 12.037109 34.414375 12.037109 34.453125 C 12.037109 34.488125 12.026016 34.639375 12.041016 34.703125 C 12.051016 34.765625 12.090469 34.858828 12.105469 34.892578 C 12.114219 34.931328 12.113281 34.960937 12.113281 34.960938 C 12.113281 34.960938 12.119219 35.000312 12.105469 35.039062 C 12.095469 35.077813 12.095703 35.170859 12.095703 35.224609 C 12.095703 35.283359 12.113281 35.341797 12.113281 35.341797 C 12.113281 35.341797 12.109609 35.375547 12.099609 35.404297 C 12.084609 35.439297 12.065547 35.516875 12.060547 35.546875 C 12.056797 35.575625 12.060313 35.597109 12.070312 35.630859 C 12.075316 35.659609 12.05625 35.733281 12.03125 35.738281 C 12.00625 35.743281 11.890469 35.791797 11.855469 35.810547 C 11.826719 35.820547 11.756641 35.893516 11.712891 35.947266 C 11.684141 35.991016 11.636094 36.093281 11.621094 36.113281 C 11.606094 36.142031 11.566875 36.196484 11.546875 36.240234 C 11.528125 36.283984 11.464453 36.381016 11.439453 36.416016 C 11.415703 36.454766 11.366563 36.553047 11.351562 36.591797 C 11.331563 36.626797 11.215313 36.837109 11.195312 36.880859 C 11.175313 36.924609 11.068047 37.050625 11.029297 37.109375 C 10.980547 37.161875 10.732422 37.490234 10.732422 37.490234 L 9.5566406 37.080078 C 9.5566406 37.070078 9.5692969 37.055859 9.6230469 37.005859 C 9.6817969 36.957109 9.7646875 36.854531 9.8046875 36.800781 C 9.8384375 36.752031 9.8242188 36.685547 9.8242188 36.685547 C 9.8879686 36.645547 9.99 36.504219 10 36.480469 C 10.01 36.460469 10.025547 36.416484 10.029297 36.396484 C 10.034297 36.372734 10.101565 36.234375 10.101562 36.234375 C 10.101562 36.234375 10.189844 36.099531 10.214844 36.050781 C 10.243594 36.002031 10.386406 35.809453 10.410156 35.751953 C 10.435156 35.698203 10.576484 35.489531 10.615234 35.425781 C 10.658984 35.352031 10.908125 34.970547 10.921875 34.935547 C 10.941875 34.901797 11.019922 34.688281 11.044922 34.644531 C 11.068672 34.605781 11.127422 34.448203 11.201172 34.345703 C 11.269922 34.238203 11.348281 34.024453 11.363281 33.970703 C 11.373281 33.916953 11.416797 33.832891 11.435547 33.775391 C 11.460547 33.711641 11.587891 33.355547 11.587891 33.310547 C 11.587891 33.271797 11.611719 33.261172 11.636719 33.232422 C 11.660469 33.202422 11.742969 33.038359 11.761719 32.974609 C 11.791719 32.905859 11.820315 32.900391 11.820312 32.900391 z M 17.328125 39.794922 C 17.363125 39.794922 17.376953 39.819141 17.376953 39.869141 L 17.373047 40.113281 L 17.373047 42.128906 L 17.386719 42.207031 C 17.396719 42.235781 17.450703 42.255859 17.533203 42.255859 C 17.680703 42.255859 17.778516 42.191953 17.822266 42.064453 C 17.837266 42.025703 17.851953 42.011719 17.876953 42.011719 C 17.930703 42.011719 17.953125 42.030469 17.953125 42.074219 C 17.953125 42.094219 17.949219 42.112814 17.949219 42.132812 C 17.940469 42.166563 17.929922 42.256563 17.919922 42.382812 C 17.909922 42.554063 17.885703 42.628125 17.845703 42.671875 C 17.806953 42.720625 17.724063 42.744141 17.601562 42.744141 L 17.505859 42.744141 C 17.447109 42.744141 17.407578 42.753438 17.392578 42.773438 C 17.377578 42.792188 17.373047 42.837422 17.373047 42.919922 L 17.373047 43.832031 C 17.369297 43.900781 17.322969 43.931641 17.230469 43.931641 L 16.849609 43.998047 C 16.792109 44.008047 16.743125 44.018203 16.703125 44.033203 C 16.669375 44.041953 16.645703 44.046875 16.626953 44.046875 L 16.617188 44.046875 C 16.573436 44.051875 16.546875 44.029219 16.546875 43.980469 C 16.546875 43.960469 16.546641 43.931484 16.556641 43.896484 C 16.576641 43.808984 16.587891 43.70625 16.587891 43.59375 L 16.587891 42.953125 L 16.582031 42.861328 L 16.556641 42.796875 C 16.536641 42.783125 16.440156 42.734375 16.347656 42.734375 L 15.205078 42.734375 C 15.122578 42.734375 15.064064 42.729844 15.039062 42.714844 C 15.015314 42.699844 14.995 42.670938 15 42.617188 C 15.005 42.524687 15.267891 42.159531 15.775391 41.519531 C 16.156641 41.040781 16.498281 40.635469 16.800781 40.292969 C 17.099531 39.961719 17.279375 39.794922 17.328125 39.794922 z M 22.050781 39.828125 L 22.056641 39.828125 C 22.085391 39.828125 22.099609 39.844297 22.099609 39.873047 C 22.099609 39.898047 22.100938 39.925938 22.085938 39.960938 L 22.021484 40.185547 L 21.972656 40.355469 C 21.933906 40.492969 21.903516 40.575703 21.884766 40.595703 C 21.874766 40.614453 21.825703 40.619141 21.751953 40.619141 L 20.693359 40.619141 C 20.570859 40.619141 20.498359 40.712422 20.474609 40.888672 C 20.464609 40.991172 20.448203 41.078359 20.439453 41.162109 C 20.424453 41.215859 20.425781 41.260937 20.425781 41.304688 C 20.425781 41.333438 20.435469 41.357188 20.449219 41.367188 C 20.600469 41.357188 20.839141 41.347656 20.931641 41.347656 L 20.966797 41.347656 C 21.015547 41.352656 21.059766 41.352422 21.103516 41.357422 C 21.391016 41.381172 21.630547 41.470703 21.810547 41.626953 C 22.030547 41.811953 22.138672 42.064453 22.138672 42.376953 C 22.138672 42.763203 21.991875 43.086719 21.703125 43.355469 C 21.420625 43.622969 20.839688 43.755859 20.429688 43.755859 L 20.425781 43.755859 C 20.254531 43.755859 20.058516 43.722187 19.853516 43.648438 C 19.643516 43.579687 19.537109 43.511875 19.537109 43.453125 C 19.537109 43.399375 19.564531 43.373047 19.613281 43.373047 C 19.628281 43.373047 19.649219 43.377813 19.667969 43.382812 C 19.941719 43.485312 20.160781 43.534063 20.332031 43.539062 C 20.614531 43.534063 20.854922 43.447734 21.044922 43.271484 C 21.244922 43.096484 21.337891 42.875937 21.337891 42.617188 C 21.337891 42.402188 21.265625 42.227187 21.109375 42.085938 C 21.074375 42.057188 21.034844 42.025703 20.996094 42.001953 C 20.986094 41.991953 20.971641 41.987422 20.962891 41.982422 C 20.835391 41.913672 20.689687 41.875 20.523438 41.875 C 20.454687 41.875 20.352187 41.884453 20.210938 41.908203 L 20.189453 41.908203 C 20.121953 41.923203 20.069063 41.923828 20.039062 41.923828 L 20.033203 41.923828 C 20.014453 41.923828 20.010859 41.922969 20.005859 41.917969 C 19.942109 41.902969 19.908203 41.860937 19.908203 41.773438 C 19.908203 41.748438 19.917891 41.698359 19.931641 41.630859 C 19.946641 41.567109 19.97125 41.425313 20 41.195312 C 20.01 41.082813 20.029687 40.952891 20.054688 40.806641 L 20.107422 40.400391 C 20.131172 40.220391 20.151016 40.117891 20.166016 40.087891 C 20.184766 40.064141 20.235859 40.048828 20.318359 40.048828 L 21.669922 40.048828 C 21.747422 40.048828 21.81625 40.024687 21.875 39.960938 L 21.992188 39.849609 C 22.005937 39.834609 22.025781 39.828125 22.050781 39.828125 z M 8.3652344 39.845703 C 8.4025781 39.853047 8.4358594 39.870469 8.4433594 39.902344 C 8.4483594 39.917344 8.453125 39.940703 8.453125 39.970703 C 8.453125 39.989453 8.4472656 40.028281 8.4472656 40.082031 L 8.421875 40.341797 C 8.416875 40.395547 8.4179688 40.453828 8.4179688 40.517578 L 8.4179688 42.998047 L 8.4082031 43.115234 L 8.4375 43.275391 C 8.49625 43.426641 8.658125 43.511641 8.921875 43.525391 C 9.004375 43.525391 9.0429688 43.55 9.0429688 43.59375 L 9.046875 43.59375 C 9.046875 43.6625 8.9642186 43.695314 8.7929688 43.695312 C 8.7542184 43.695313 8.4033594 43.685625 8.1933594 43.671875 C 8.1046094 43.661875 7.9929688 43.658203 7.8554688 43.658203 C 7.6504687 43.663203 7.3546875 43.667891 7.2421875 43.681641 C 7.1834375 43.686641 7.1432813 43.691406 7.1132812 43.691406 C 7.0695312 43.691406 7.046875 43.667891 7.046875 43.619141 C 7.046875 43.579141 7.0703906 43.549922 7.1191406 43.544922 C 7.3153906 43.511172 7.4460156 43.465703 7.5097656 43.408203 C 7.5685156 43.349453 7.5976563 43.236562 7.5976562 43.070312 L 7.5917969 42.958984 L 7.5917969 40.755859 C 7.5917969 40.580859 7.5333594 40.477891 7.4121094 40.462891 C 7.3721094 40.467891 7.3295314 40.474375 7.3007812 40.484375 L 7.2265625 40.523438 C 7.1678125 40.552188 7.1092186 40.555781 7.0742188 40.550781 C 7.0504688 40.542031 7.0267188 40.531719 7.0117188 40.511719 C 7.0067187 40.511719 7.0019531 40.506953 7.0019531 40.501953 C 6.9969531 40.493203 6.9932813 40.48375 6.9882812 40.46875 L 6.9882812 40.462891 C 6.9882812 40.414141 7.0117969 40.376562 7.0605469 40.351562 C 7.1105469 40.327813 7.2072656 40.297422 7.3535156 40.263672 C 7.6310156 40.204922 7.9345313 40.117266 8.0507812 40.009766 L 8.1894531 39.886719 C 8.2082031 39.862969 8.2279684 39.854609 8.2617188 39.849609 C 8.2860934 39.842109 8.3278906 39.838359 8.3652344 39.845703 z M 12.123047 39.902344 C 12.421797 39.902344 12.783516 39.980469 12.978516 40.136719 C 13.168516 40.292969 13.265625 40.494531 13.265625 40.738281 C 13.265625 40.899531 13.2175 41.039609 13.125 41.162109 C 13.0275 41.288359 12.905391 41.381797 12.744141 41.435547 C 12.646641 41.465547 12.597656 41.492812 12.597656 41.507812 C 12.592656 41.527812 12.645313 41.561719 12.757812 41.605469 C 13.211564 41.800469 13.4375 42.124141 13.4375 42.587891 C 13.4375 42.944141 13.320781 43.221641 13.082031 43.431641 C 12.842031 43.646641 12.416641 43.755859 12.025391 43.755859 C 11.644141 43.755859 11.225938 43.657891 10.992188 43.462891 C 10.757186 43.261641 10.640625 43.008047 10.640625 42.685547 C 10.640625 42.329297 10.824686 42.046797 11.210938 41.841797 C 11.244687 41.821797 11.265625 41.805625 11.265625 41.796875 C 11.265625 41.781875 11.250781 41.762266 11.207031 41.728516 C 10.938281 41.528516 10.800781 41.270625 10.800781 40.953125 C 10.800781 40.645625 10.911719 40.395314 11.136719 40.195312 C 11.366719 40.000312 11.766797 39.902344 12.123047 39.902344 z M 12.015625 40.101562 C 11.938125 40.101562 11.869297 40.116875 11.810547 40.140625 C 11.746797 40.170625 11.690625 40.200391 11.640625 40.244141 C 11.509375 40.351641 11.439453 40.493203 11.439453 40.658203 C 11.439453 40.844453 11.541953 41.011094 11.751953 41.152344 C 11.933203 41.278594 12.113047 41.357109 12.279297 41.380859 C 12.371797 41.357109 12.450781 41.308359 12.519531 41.224609 C 12.612031 41.113359 12.65625 40.975703 12.65625 40.814453 C 12.65625 40.609453 12.582656 40.435469 12.441406 40.292969 C 12.377656 40.230469 12.304219 40.185234 12.230469 40.146484 C 12.171719 40.122734 12.094375 40.101562 12.015625 40.101562 z M 16.587891 41.001953 L 16.255859 41.396484 C 16.133359 41.562734 15.986564 41.806797 15.820312 42.060547 C 15.796564 42.105547 15.770859 42.134297 15.755859 42.154297 C 15.732109 42.183047 15.722656 42.212812 15.722656 42.226562 C 15.722656 42.261562 15.761094 42.275391 15.839844 42.275391 L 15.931641 42.279297 L 16.488281 42.314453 C 16.557031 42.314453 16.591797 42.265234 16.591797 42.177734 L 16.587891 42.105469 L 16.587891 41.001953 z M 11.582031 41.943359 C 11.577031 41.943359 11.573359 41.944219 11.568359 41.949219 C 11.519609 41.982969 11.475313 42.021641 11.445312 42.056641 C 11.342814 42.177891 11.289062 42.349688 11.289062 42.554688 C 11.289062 42.847188 11.377734 43.09125 11.552734 43.28125 C 11.577734 43.31 11.601953 43.329609 11.626953 43.349609 C 11.744453 43.447109 11.908359 43.511719 12.099609 43.511719 C 12.294609 43.511719 12.465781 43.447109 12.582031 43.349609 C 12.704531 43.232109 12.769531 43.086406 12.769531 42.910156 C 12.769531 42.573906 12.582891 42.329609 12.212891 42.193359 L 11.914062 42.080078 C 11.846564 42.056328 11.734141 42.005859 11.587891 41.943359 L 11.582031 41.943359 z "
                 transform="matrix(0.8,0,0,-0.8,0,39)"
                 id="path6314"
                 inkscape:export-xdpi="246.48"
                 inkscape:export-ydpi="246.48" /></g></g></g></g></g></g></svg>